<svg width="28" height="17" viewBox="0 0 28 17" fill="none" xmlns="http://www.w3.org/2000/svg">
<path d="M16.825 15.075V16H9.325V15.075L10.475 15.125C10.975 15.175 11.225 14.975 11.225 14.525C11.225 14.2417 11.1417 13.9167 10.975 13.55L10.05 11.35H4.55L3.7 13.4C3.46667 13.9167 3.35 14.3333 3.35 14.65C3.35 15 3.53333 15.1667 3.9 15.15L5.025 15.075V16H0.5V15.075L1.225 15.125H1.325C1.65833 15.125 1.93333 14.9667 2.15 14.65C2.4 14.2833 2.65 13.8 2.9 13.2L8.05 0.824999H9.275L14.475 13.25C14.7083 13.85 14.95 14.325 15.2 14.675C15.4333 14.975 15.725 15.125 16.075 15.125H16.2L16.825 15.075ZM4.9 10.475H9.7L7.275 4.725L4.9 10.475ZM27.732 15.15V16H23.182C23.2487 15.6 23.282 15.2917 23.282 15.075L23.307 14.4C22.5737 15.55 21.4237 16.125 19.857 16.125C18.807 16.125 18.007 15.8917 17.457 15.425C16.9237 14.9417 16.657 14.2333 16.657 13.3C16.657 12.0833 17.1904 11.1833 18.257 10.6C19.3237 10.0167 21.007 9.725 23.307 9.725V7.975C23.307 7.34167 23.1987 6.85 22.982 6.5C22.7654 6.15 22.3154 5.975 21.632 5.975C21.0487 5.975 20.632 6.075 20.382 6.275C20.1487 6.475 20.032 6.71667 20.032 7C20.032 7.21667 20.0737 7.40833 20.157 7.575C20.2237 7.80833 20.257 7.975 20.257 8.075C20.257 8.44167 20.1237 8.725 19.857 8.925C19.607 9.125 19.282 9.225 18.882 9.225C18.4154 9.225 18.032 9.09167 17.732 8.825C17.4487 8.54167 17.307 8.19167 17.307 7.775C17.307 6.975 17.7237 6.33333 18.557 5.85C19.3904 5.36667 20.5154 5.125 21.932 5.125C25.032 5.125 26.582 6.23333 26.582 8.45V14.725C26.582 15.0417 26.6904 15.2 26.907 15.2L27.732 15.15ZM21.282 14.65C21.7987 14.65 22.2404 14.4333 22.607 14C22.9904 13.55 23.2237 12.9667 23.307 12.25V10.6C22.1737 10.6 21.3487 10.8 20.832 11.2C20.3154 11.6 20.057 12.2 20.057 13C20.057 14.1 20.4654 14.65 21.282 14.65Z" fill="black"/>
</svg>
