<svg width="71" height="40" viewBox="0 0 71 40" fill="none" xmlns="http://www.w3.org/2000/svg">
<path d="M42.512 36.632V39H23.312V36.632L26.256 36.76C27.536 36.888 28.176 36.376 28.176 35.224C28.176 34.4987 27.9627 33.6667 27.536 32.728L25.168 27.096H11.088L8.912 32.344C8.31467 33.6667 8.016 34.7333 8.016 35.544C8.016 36.44 8.48533 36.8667 9.424 36.824L12.304 36.632V39H0.72V36.632L2.576 36.76H2.832C3.68533 36.76 4.38933 36.3547 4.944 35.544C5.584 34.6053 6.224 33.368 6.864 31.832L20.048 0.151997H23.184L36.496 31.96C37.0933 33.496 37.712 34.712 38.352 35.608C38.9493 36.376 39.696 36.76 40.592 36.76H40.912L42.512 36.632ZM11.984 24.856H24.272L18.064 10.136L11.984 24.856ZM70.434 36.824V39H58.786C58.9567 37.976 59.042 37.1867 59.042 36.632L59.106 34.904C57.2287 37.848 54.2847 39.32 50.274 39.32C47.586 39.32 45.538 38.7227 44.13 37.528C42.7647 36.2907 42.082 34.4773 42.082 32.088C42.082 28.9733 43.4473 26.6693 46.178 25.176C48.9087 23.6827 53.218 22.936 59.106 22.936V18.456C59.106 16.8347 58.8287 15.576 58.274 14.68C57.7193 13.784 56.5673 13.336 54.818 13.336C53.3247 13.336 52.258 13.592 51.618 14.104C51.0207 14.616 50.722 15.2347 50.722 15.96C50.722 16.5147 50.8287 17.0053 51.042 17.432C51.2127 18.0293 51.298 18.456 51.298 18.712C51.298 19.6507 50.9567 20.376 50.274 20.888C49.634 21.4 48.802 21.656 47.778 21.656C46.5833 21.656 45.602 21.3147 44.834 20.632C44.1087 19.9067 43.746 19.0107 43.746 17.944C43.746 15.896 44.8127 14.2533 46.946 13.016C49.0793 11.7787 51.9593 11.16 55.586 11.16C63.522 11.16 67.49 13.9973 67.49 19.672V35.736C67.49 36.5467 67.7673 36.952 68.322 36.952L70.434 36.824ZM53.922 35.544C55.2447 35.544 56.3753 34.9893 57.314 33.88C58.2953 32.728 58.8927 31.2347 59.106 29.4V25.176C56.2047 25.176 54.0927 25.688 52.77 26.712C51.4473 27.736 50.786 29.272 50.786 31.32C50.786 34.136 51.8313 35.544 53.922 35.544Z" fill="black"/>
</svg>
