<svg width="22" height="14" viewBox="0 0 22 14" fill="none" xmlns="http://www.w3.org/2000/svg">
<path d="M13.42 12.42V13H8.12V12.42L9.1 12.46C9.5 12.5 9.7 12.34 9.7 11.98C9.7 11.7533 9.63333 11.4933 9.5 11.2L8.52 8.84H3.86L2.94 11.08C2.75333 11.4933 2.66 11.8267 2.66 12.08C2.66 12.36 2.80667 12.4933 3.1 12.48L4.06 12.42V13H0.6V12.42L1.12 12.46H1.2C1.46667 12.46 1.68667 12.3333 1.86 12.08C2.06 11.7867 2.26 11.4 2.46 10.92L6.64 0.859999H7.16L11.38 10.96C11.5667 11.44 11.76 11.82 11.96 12.1C12.1467 12.34 12.38 12.46 12.66 12.46H12.76L13.42 12.42ZM4.1 8.28H8.28L6.18 3.24L4.1 8.28ZM21.6117 12.48V13H18.7717C18.7851 12.9067 18.7984 12.7867 18.8117 12.64C18.8384 12.48 18.8517 12.3533 18.8517 12.26L18.8917 11.48C18.5984 12.0533 18.2184 12.4667 17.7517 12.72C17.2984 12.9733 16.7517 13.1 16.1117 13.1C15.2717 13.1 14.6317 12.9133 14.1917 12.54C13.7651 12.1533 13.5517 11.5867 13.5517 10.84C13.5517 9.81333 13.9784 9.06 14.8317 8.58C15.6984 8.08667 17.0517 7.84 18.8917 7.84V6.68C18.8917 6.05333 18.7451 5.60667 18.4517 5.34C18.1584 5.07333 17.6851 4.94 17.0317 4.94C16.0184 4.94 15.5117 5.22 15.5117 5.78C15.5117 5.88667 15.5384 6.01333 15.5917 6.16C15.6584 6.29333 15.6917 6.42 15.6917 6.54C15.6917 6.76667 15.6184 6.94 15.4717 7.06C15.3251 7.16667 15.1384 7.22 14.9117 7.22C14.6317 7.22 14.4117 7.13333 14.2517 6.96C14.1051 6.78667 14.0317 6.56 14.0317 6.28C14.0317 5.72 14.3251 5.26667 14.9117 4.92C15.4984 4.57333 16.2851 4.4 17.2717 4.4C19.4984 4.4 20.6117 5.34 20.6117 7.22V12.14C20.6117 12.3933 20.6984 12.52 20.8717 12.52L21.6117 12.48ZM16.7117 12.38C17.2984 12.38 17.7984 12.14 18.2117 11.66C18.6251 11.1667 18.8517 10.5333 18.8917 9.76V8.38C17.6384 8.38 16.7384 8.56667 16.1917 8.94C15.6451 9.3 15.3717 9.88 15.3717 10.68C15.3717 11.24 15.4851 11.6667 15.7117 11.96C15.9517 12.24 16.2851 12.38 16.7117 12.38Z" fill="black"/>
</svg>
