<svg width="34" height="20" viewBox="0 0 34 20" fill="none" xmlns="http://www.w3.org/2000/svg">
<path d="M19.99 17.89V19H10.99V17.89L12.37 17.95C12.97 18.01 13.27 17.77 13.27 17.23C13.27 16.89 13.17 16.5 12.97 16.06L11.86 13.42H5.26L4.24 15.88C3.96 16.5 3.82 17 3.82 17.38C3.82 17.8 4.04 18 4.48 17.98L5.83 17.89V19H0.4V17.89L1.27 17.95H1.39C1.79 17.95 2.12 17.76 2.38 17.38C2.68 16.94 2.98 16.36 3.28 15.64L9.46 0.789998H10.93L17.17 15.7C17.45 16.42 17.74 16.99 18.04 17.41C18.32 17.77 18.67 17.95 19.09 17.95H19.24L19.99 17.89ZM5.68 12.37H11.44L8.53 5.47L5.68 12.37ZM33.0784 17.98V19H27.6184C27.6984 18.52 27.7384 18.15 27.7384 17.89L27.7684 17.08C26.8884 18.46 25.5084 19.15 23.6284 19.15C22.3684 19.15 21.4084 18.87 20.7484 18.31C20.1084 17.73 19.7884 16.88 19.7884 15.76C19.7884 14.3 20.4284 13.22 21.7084 12.52C22.9884 11.82 25.0084 11.47 27.7684 11.47V9.37C27.7684 8.61 27.6384 8.02 27.3784 7.6C27.1184 7.18 26.5784 6.97 25.7584 6.97C25.0584 6.97 24.5584 7.09 24.2584 7.33C23.9784 7.57 23.8384 7.86 23.8384 8.2C23.8384 8.46 23.8884 8.69 23.9884 8.89C24.0684 9.17 24.1084 9.37 24.1084 9.49C24.1084 9.93 23.9484 10.27 23.6284 10.51C23.3284 10.75 22.9384 10.87 22.4584 10.87C21.8984 10.87 21.4384 10.71 21.0784 10.39C20.7384 10.05 20.5684 9.63 20.5684 9.13C20.5684 8.17 21.0684 7.4 22.0684 6.82C23.0684 6.24 24.4184 5.95 26.1184 5.95C29.8384 5.95 31.6984 7.28 31.6984 9.94V17.47C31.6984 17.85 31.8284 18.04 32.0884 18.04L33.0784 17.98ZM25.3384 17.38C25.9584 17.38 26.4884 17.12 26.9284 16.6C27.3884 16.06 27.6684 15.36 27.7684 14.5V12.52C26.4084 12.52 25.4184 12.76 24.7984 13.24C24.1784 13.72 23.8684 14.44 23.8684 15.4C23.8684 16.72 24.3584 17.38 25.3384 17.38Z" fill="black"/>
</svg>
