<svg width="14" height="9" viewBox="0 0 14 9" fill="none" xmlns="http://www.w3.org/2000/svg">
<path d="M8.452 7.652V8H5.272V7.652L5.86 7.676C6.1 7.7 6.22 7.604 6.22 7.388C6.22 7.252 6.18 7.096 6.1 6.92L5.512 5.504H2.716L2.164 6.848C2.052 7.096 1.996 7.296 1.996 7.448C1.996 7.616 2.084 7.696 2.26 7.688L2.836 7.652V8H0.76V7.652L1.072 7.676H1.12C1.28 7.676 1.412 7.6 1.516 7.448C1.636 7.272 1.756 7.04 1.876 6.752L4.384 0.715999H4.696L7.228 6.776C7.34 7.064 7.456 7.292 7.576 7.46C7.688 7.604 7.828 7.676 7.996 7.676H8.056L8.452 7.652ZM2.86 5.168H5.368L4.108 2.144L2.86 5.168ZM13.367 7.688V8H11.663C11.671 7.944 11.679 7.872 11.687 7.784C11.703 7.688 11.711 7.612 11.711 7.556L11.735 7.088C11.559 7.432 11.331 7.68 11.051 7.832C10.779 7.984 10.451 8.06 10.067 8.06C9.56303 8.06 9.17903 7.948 8.91503 7.724C8.65903 7.492 8.53103 7.152 8.53103 6.704C8.53103 6.088 8.78703 5.636 9.29903 5.348C9.81903 5.052 10.631 4.904 11.735 4.904V4.208C11.735 3.832 11.647 3.564 11.471 3.404C11.295 3.244 11.011 3.164 10.619 3.164C10.011 3.164 9.70703 3.332 9.70703 3.668C9.70703 3.732 9.72303 3.808 9.75503 3.896C9.79503 3.976 9.81503 4.052 9.81503 4.124C9.81503 4.26 9.77103 4.364 9.68303 4.436C9.59503 4.5 9.48303 4.532 9.34703 4.532C9.17903 4.532 9.04703 4.48 8.95103 4.376C8.86303 4.272 8.81903 4.136 8.81903 3.968C8.81903 3.632 8.99503 3.36 9.34703 3.152C9.69903 2.944 10.171 2.84 10.763 2.84C12.099 2.84 12.767 3.404 12.767 4.532V7.484C12.767 7.636 12.819 7.712 12.923 7.712L13.367 7.688ZM10.427 7.628C10.779 7.628 11.079 7.484 11.327 7.196C11.575 6.9 11.711 6.52 11.735 6.056V5.228C10.983 5.228 10.443 5.34 10.115 5.564C9.78703 5.78 9.62303 6.128 9.62303 6.608C9.62303 6.944 9.69103 7.2 9.82703 7.376C9.97103 7.544 10.171 7.628 10.427 7.628Z" fill="black"/>
</svg>
