<svg width="44" height="26" viewBox="0 0 44 26" fill="none" xmlns="http://www.w3.org/2000/svg">
<path d="M26.32 23.52V25H14.32V23.52L16.16 23.6C16.96 23.68 17.36 23.36 17.36 22.64C17.36 22.1867 17.2267 21.6667 16.96 21.08L15.48 17.56H6.68L5.32 20.84C4.94667 21.6667 4.76 22.3333 4.76 22.84C4.76 23.4 5.05333 23.6667 5.64 23.64L7.44 23.52V25H0.2V23.52L1.36 23.6H1.52C2.05333 23.6 2.49333 23.3467 2.84 22.84C3.24 22.2533 3.64 21.48 4.04 20.52L12.28 0.719998H14.24L22.56 20.6C22.9333 21.56 23.32 22.32 23.72 22.88C24.0933 23.36 24.56 23.6 25.12 23.6H25.32L26.32 23.52ZM7.24 16.16H14.92L11.04 6.96L7.24 16.16ZM43.7713 23.64V25H36.4913C36.5979 24.36 36.6513 23.8667 36.6513 23.52L36.6913 22.44C35.5179 24.28 33.6779 25.2 31.1713 25.2C29.4913 25.2 28.2113 24.8267 27.3313 24.08C26.4779 23.3067 26.0513 22.1733 26.0513 20.68C26.0513 18.7333 26.9046 17.2933 28.6113 16.36C30.3179 15.4267 33.0113 14.96 36.6913 14.96V12.16C36.6913 11.1467 36.5179 10.36 36.1713 9.8C35.8246 9.24 35.1046 8.96 34.0113 8.96C33.0779 8.96 32.4113 9.12 32.0113 9.44C31.6379 9.76 31.4513 10.1467 31.4513 10.6C31.4513 10.9467 31.5179 11.2533 31.6513 11.52C31.7579 11.8933 31.8113 12.16 31.8113 12.32C31.8113 12.9067 31.5979 13.36 31.1713 13.68C30.7713 14 30.2513 14.16 29.6113 14.16C28.8646 14.16 28.2513 13.9467 27.7713 13.52C27.3179 13.0667 27.0913 12.5067 27.0913 11.84C27.0913 10.56 27.7579 9.53333 29.0913 8.76C30.4246 7.98667 32.2246 7.6 34.4913 7.6C39.4513 7.6 41.9313 9.37333 41.9313 12.92V22.96C41.9313 23.4667 42.1046 23.72 42.4513 23.72L43.7713 23.64ZM33.4513 22.84C34.2779 22.84 34.9846 22.4933 35.5713 21.8C36.1846 21.08 36.5579 20.1467 36.6913 19V16.36C34.8779 16.36 33.5579 16.68 32.7313 17.32C31.9046 17.96 31.4913 18.92 31.4913 20.2C31.4913 21.96 32.1446 22.84 33.4513 22.84Z" fill="black"/>
</svg>
