<svg width="27" height="17" viewBox="0 0 27 17" fill="none" xmlns="http://www.w3.org/2000/svg">
<path d="M16.525 15.275V16H9.9V15.275L11.125 15.325C11.625 15.375 11.875 15.175 11.875 14.725C11.875 14.4417 11.7917 14.1167 11.625 13.75L10.4 10.8H4.575L3.425 13.6C3.19167 14.1167 3.075 14.5333 3.075 14.85C3.075 15.2 3.25833 15.3667 3.625 15.35L4.825 15.275V16H0.5V15.275L1.15 15.325H1.25C1.58333 15.325 1.85833 15.1667 2.075 14.85C2.325 14.4833 2.575 14 2.825 13.4L8.05 0.824999H8.7L13.975 13.45C14.2083 14.05 14.45 14.525 14.7 14.875C14.9333 15.175 15.225 15.325 15.575 15.325H15.7L16.525 15.275ZM4.875 10.1H10.1L7.475 3.8L4.875 10.1ZM26.7646 15.35V16H23.2146C23.2313 15.8833 23.248 15.7333 23.2646 15.55C23.298 15.35 23.3146 15.1917 23.3146 15.075L23.3646 14.1C22.998 14.8167 22.523 15.3333 21.9396 15.65C21.373 15.9667 20.6896 16.125 19.8896 16.125C18.8396 16.125 18.0396 15.8917 17.4896 15.425C16.9563 14.9417 16.6896 14.2333 16.6896 13.3C16.6896 12.0167 17.223 11.075 18.2896 10.475C19.373 9.85833 21.0646 9.55 23.3646 9.55V8.1C23.3646 7.31667 23.1813 6.75833 22.8146 6.425C22.448 6.09167 21.8563 5.925 21.0396 5.925C19.773 5.925 19.1396 6.275 19.1396 6.975C19.1396 7.10833 19.173 7.26667 19.2396 7.45C19.323 7.61667 19.3646 7.775 19.3646 7.925C19.3646 8.20833 19.273 8.425 19.0896 8.575C18.9063 8.70833 18.673 8.775 18.3896 8.775C18.0396 8.775 17.7646 8.66667 17.5646 8.45C17.3813 8.23333 17.2896 7.95 17.2896 7.6C17.2896 6.9 17.6563 6.33333 18.3896 5.9C19.123 5.46667 20.1063 5.25 21.3396 5.25C24.123 5.25 25.5146 6.425 25.5146 8.775V14.925C25.5146 15.2417 25.623 15.4 25.8396 15.4L26.7646 15.35ZM20.6396 15.225C21.373 15.225 21.998 14.925 22.5146 14.325C23.0313 13.7083 23.3146 12.9167 23.3646 11.95V10.225C21.798 10.225 20.673 10.4583 19.9896 10.925C19.3063 11.375 18.9646 12.1 18.9646 13.1C18.9646 13.8 19.1063 14.3333 19.3896 14.7C19.6896 15.05 20.1063 15.225 20.6396 15.225Z" fill="black"/>
</svg>
