<svg width="23" height="14" viewBox="0 0 23 14" fill="none" xmlns="http://www.w3.org/2000/svg">
<path d="M13.66 12.26V13H7.66V12.26L8.58 12.3C8.98 12.34 9.18 12.18 9.18 11.82C9.18 11.5933 9.11333 11.3333 8.98 11.04L8.24 9.28H3.84L3.16 10.92C2.97333 11.3333 2.88 11.6667 2.88 11.92C2.88 12.2 3.02667 12.3333 3.32 12.32L4.22 12.26V13H0.6V12.26L1.18 12.3H1.26C1.52667 12.3 1.74667 12.1733 1.92 11.92C2.12 11.6267 2.32 11.24 2.52 10.76L6.64 0.859999H7.62L11.78 10.8C11.9667 11.28 12.16 11.66 12.36 11.94C12.5467 12.18 12.78 12.3 13.06 12.3H13.16L13.66 12.26ZM4.12 8.58H7.96L6.02 3.98L4.12 8.58ZM22.3856 12.32V13H18.7456C18.799 12.68 18.8256 12.4333 18.8256 12.26L18.8456 11.72C18.259 12.64 17.339 13.1 16.0856 13.1C15.2456 13.1 14.6056 12.9133 14.1656 12.54C13.739 12.1533 13.5256 11.5867 13.5256 10.84C13.5256 9.86667 13.9523 9.14667 14.8056 8.68C15.659 8.21333 17.0056 7.98 18.8456 7.98V6.58C18.8456 6.07333 18.759 5.68 18.5856 5.4C18.4123 5.12 18.0523 4.98 17.5056 4.98C17.039 4.98 16.7056 5.06 16.5056 5.22C16.319 5.38 16.2256 5.57333 16.2256 5.8C16.2256 5.97333 16.259 6.12667 16.3256 6.26C16.379 6.44667 16.4056 6.58 16.4056 6.66C16.4056 6.95333 16.299 7.18 16.0856 7.34C15.8856 7.5 15.6256 7.58 15.3056 7.58C14.9323 7.58 14.6256 7.47333 14.3856 7.26C14.159 7.03333 14.0456 6.75333 14.0456 6.42C14.0456 5.78 14.379 5.26667 15.0456 4.88C15.7123 4.49333 16.6123 4.3 17.7456 4.3C20.2256 4.3 21.4656 5.18667 21.4656 6.96V11.98C21.4656 12.2333 21.5523 12.36 21.7256 12.36L22.3856 12.32ZM17.2256 11.92C17.639 11.92 17.9923 11.7467 18.2856 11.4C18.5923 11.04 18.779 10.5733 18.8456 10V8.68C17.939 8.68 17.279 8.84 16.8656 9.16C16.4523 9.48 16.2456 9.96 16.2456 10.6C16.2456 11.48 16.5723 11.92 17.2256 11.92Z" fill="black"/>
</svg>
