<svg width="21" height="12" viewBox="0 0 21 12" fill="none" xmlns="http://www.w3.org/2000/svg">
<path d="M12.394 10.334V11H6.994V10.334L7.822 10.37C8.182 10.406 8.362 10.262 8.362 9.938C8.362 9.734 8.302 9.5 8.182 9.236L7.516 7.652H3.556L2.944 9.128C2.776 9.5 2.692 9.8 2.692 10.028C2.692 10.28 2.824 10.4 3.088 10.388L3.898 10.334V11H0.64V10.334L1.162 10.37H1.234C1.474 10.37 1.672 10.256 1.828 10.028C2.008 9.764 2.188 9.416 2.368 8.984L6.076 0.073999H6.958L10.702 9.02C10.87 9.452 11.044 9.794 11.224 10.046C11.392 10.262 11.602 10.37 11.854 10.37H11.944L12.394 10.334ZM3.808 7.022H7.264L5.518 2.882L3.808 7.022ZM20.2471 10.388V11H16.9711C17.0191 10.712 17.0431 10.49 17.0431 10.334L17.0611 9.848C16.5331 10.676 15.7051 11.09 14.5771 11.09C13.8211 11.09 13.2451 10.922 12.8491 10.586C12.4651 10.238 12.2731 9.728 12.2731 9.056C12.2731 8.18 12.6571 7.532 13.4251 7.112C14.1931 6.692 15.4051 6.482 17.0611 6.482V5.222C17.0611 4.766 16.9831 4.412 16.8271 4.16C16.6711 3.908 16.3471 3.782 15.8551 3.782C15.4351 3.782 15.1351 3.854 14.9551 3.998C14.7871 4.142 14.7031 4.316 14.7031 4.52C14.7031 4.676 14.7331 4.814 14.7931 4.934C14.8411 5.102 14.8651 5.222 14.8651 5.294C14.8651 5.558 14.7691 5.762 14.5771 5.906C14.3971 6.05 14.1631 6.122 13.8751 6.122C13.5391 6.122 13.2631 6.026 13.0471 5.834C12.8431 5.63 12.7411 5.378 12.7411 5.078C12.7411 4.502 13.0411 4.04 13.6411 3.692C14.2411 3.344 15.0511 3.17 16.0711 3.17C18.3031 3.17 19.4191 3.968 19.4191 5.564V10.082C19.4191 10.31 19.4971 10.424 19.6531 10.424L20.2471 10.388ZM15.6031 10.028C15.9751 10.028 16.2931 9.872 16.5571 9.56C16.8331 9.236 17.0011 8.816 17.0611 8.3V7.112C16.2451 7.112 15.6511 7.256 15.2791 7.544C14.9071 7.832 14.7211 8.264 14.7211 8.84C14.7211 9.632 15.0151 10.028 15.6031 10.028Z" fill="black"/>
</svg>
