<svg width="22" height="13" viewBox="0 0 22 13" fill="none" xmlns="http://www.w3.org/2000/svg">
<path d="M7.952 9.872H3.504L2.768 12H0.416L4.432 0.815999H7.04L11.056 12H8.688L7.952 9.872ZM7.344 8.08L5.728 3.408L4.112 8.08H7.344ZM11.9811 7.536C11.9811 6.64 12.1571 5.84533 12.5091 5.152C12.8718 4.45867 13.3571 3.92533 13.9651 3.552C14.5838 3.17867 15.2718 2.992 16.0291 2.992C16.6905 2.992 17.2665 3.12533 17.7571 3.392C18.2585 3.65867 18.6585 3.99467 18.9571 4.4V3.136H21.2131V12H18.9571V10.704C18.6691 11.12 18.2691 11.4667 17.7571 11.744C17.2558 12.0107 16.6745 12.144 16.0131 12.144C15.2665 12.144 14.5838 11.952 13.9651 11.568C13.3571 11.184 12.8718 10.6453 12.5091 9.952C12.1571 9.248 11.9811 8.44267 11.9811 7.536ZM18.9571 7.568C18.9571 7.024 18.8505 6.56 18.6371 6.176C18.4238 5.78133 18.1358 5.48267 17.7731 5.28C17.4105 5.06667 17.0211 4.96 16.6051 4.96C16.1891 4.96 15.8051 5.06133 15.4531 5.264C15.1011 5.46667 14.8131 5.76533 14.5891 6.16C14.3758 6.544 14.2691 7.00267 14.2691 7.536C14.2691 8.06933 14.3758 8.53867 14.5891 8.944C14.8131 9.33867 15.1011 9.64267 15.4531 9.856C15.8158 10.0693 16.1998 10.176 16.6051 10.176C17.0211 10.176 17.4105 10.0747 17.7731 9.872C18.1358 9.65867 18.4238 9.36 18.6371 8.976C18.8505 8.58133 18.9571 8.112 18.9571 7.568Z" fill="black"/>
</svg>
