<svg width="34" height="19" viewBox="0 0 34 19" fill="none" xmlns="http://www.w3.org/2000/svg">
<path d="M12.425 14.675H5.475L4.325 18H0.65L6.925 0.524998H11L17.275 18H13.575L12.425 14.675ZM11.475 11.875L8.95 4.575L6.425 11.875H11.475ZM18.7205 11.025C18.7205 9.625 18.9955 8.38333 19.5455 7.3C20.1122 6.21667 20.8705 5.38333 21.8205 4.8C22.7872 4.21667 23.8622 3.925 25.0455 3.925C26.0788 3.925 26.9788 4.13333 27.7455 4.55C28.5288 4.96667 29.1538 5.49167 29.6205 6.125V4.15H33.1455V18H29.6205V15.975C29.1705 16.625 28.5455 17.1667 27.7455 17.6C26.9622 18.0167 26.0538 18.225 25.0205 18.225C23.8538 18.225 22.7872 17.925 21.8205 17.325C20.8705 16.725 20.1122 15.8833 19.5455 14.8C18.9955 13.7 18.7205 12.4417 18.7205 11.025ZM29.6205 11.075C29.6205 10.225 29.4538 9.5 29.1205 8.9C28.7872 8.28333 28.3372 7.81667 27.7705 7.5C27.2038 7.16667 26.5955 7 25.9455 7C25.2955 7 24.6955 7.15833 24.1455 7.475C23.5955 7.79167 23.1455 8.25833 22.7955 8.875C22.4622 9.475 22.2955 10.1917 22.2955 11.025C22.2955 11.8583 22.4622 12.5917 22.7955 13.225C23.1455 13.8417 23.5955 14.3167 24.1455 14.65C24.7122 14.9833 25.3122 15.15 25.9455 15.15C26.5955 15.15 27.2038 14.9917 27.7705 14.675C28.3372 14.3417 28.7872 13.875 29.1205 13.275C29.4538 12.6583 29.6205 11.925 29.6205 11.075Z" fill="black"/>
</svg>
