<svg width="13" height="8" viewBox="0 0 13 8" fill="none" xmlns="http://www.w3.org/2000/svg">
<path d="M4.89 5.45H1.85L1.29 7H0.33L2.85 0.0699998H3.9L6.41 7H5.45L4.89 5.45ZM4.63 4.71L3.37 1.19L2.11 4.71H4.63ZM7.16828 4.24C7.16828 3.68 7.28161 3.19 7.50828 2.77C7.73495 2.34333 8.04495 2.01333 8.43828 1.78C8.83828 1.54667 9.28161 1.43 9.76828 1.43C10.2483 1.43 10.6649 1.53333 11.0183 1.74C11.3716 1.94667 11.6349 2.20667 11.8083 2.52V1.52H12.7283V7H11.8083V5.98C11.6283 6.3 11.3583 6.56667 10.9983 6.78C10.6449 6.98667 10.2316 7.09 9.75828 7.09C9.27161 7.09 8.83161 6.97 8.43828 6.73C8.04495 6.49 7.73495 6.15333 7.50828 5.72C7.28161 5.28667 7.16828 4.79333 7.16828 4.24ZM11.8083 4.25C11.8083 3.83667 11.7249 3.47667 11.5583 3.17C11.3916 2.86333 11.1649 2.63 10.8783 2.47C10.5983 2.30333 10.2883 2.22 9.94828 2.22C9.60828 2.22 9.29828 2.3 9.01828 2.46C8.73828 2.62 8.51495 2.85333 8.34828 3.16C8.18161 3.46667 8.09828 3.82667 8.09828 4.24C8.09828 4.66 8.18161 5.02667 8.34828 5.34C8.51495 5.64667 8.73828 5.88333 9.01828 6.05C9.29828 6.21 9.60828 6.29 9.94828 6.29C10.2883 6.29 10.5983 6.21 10.8783 6.05C11.1649 5.88333 11.3916 5.64667 11.5583 5.34C11.7249 5.02667 11.8083 4.66333 11.8083 4.25Z" fill="black"/>
</svg>
