<svg width="23" height="14" viewBox="0 0 23 14" fill="none" xmlns="http://www.w3.org/2000/svg">
<path d="M8.802 10.21H3.33L2.322 13H0.594L5.13 0.526H7.02L11.538 13H9.81L8.802 10.21ZM8.334 8.878L6.066 2.542L3.798 8.878H8.334ZM12.9029 8.032C12.9029 7.024 13.1069 6.142 13.5149 5.386C13.9229 4.618 14.4809 4.024 15.1889 3.604C15.9089 3.184 16.7069 2.974 17.5829 2.974C18.4469 2.974 19.1969 3.16 19.8329 3.532C20.4689 3.904 20.9429 4.372 21.2549 4.936V3.136H22.9109V13H21.2549V11.164C20.9309 11.74 20.4449 12.22 19.7969 12.604C19.1609 12.976 18.4169 13.162 17.5649 13.162C16.6889 13.162 15.8969 12.946 15.1889 12.514C14.4809 12.082 13.9229 11.476 13.5149 10.696C13.1069 9.916 12.9029 9.028 12.9029 8.032ZM21.2549 8.05C21.2549 7.306 21.1049 6.658 20.8049 6.106C20.5049 5.554 20.0969 5.134 19.5809 4.846C19.0769 4.546 18.5189 4.396 17.9069 4.396C17.2949 4.396 16.7369 4.54 16.2329 4.828C15.7289 5.116 15.3269 5.536 15.0269 6.088C14.7269 6.64 14.5769 7.288 14.5769 8.032C14.5769 8.788 14.7269 9.448 15.0269 10.012C15.3269 10.564 15.7289 10.99 16.2329 11.29C16.7369 11.578 17.2949 11.722 17.9069 11.722C18.5189 11.722 19.0769 11.578 19.5809 11.29C20.0969 10.99 20.5049 10.564 20.8049 10.012C21.1049 9.448 21.2549 8.794 21.2549 8.05Z" fill="black"/>
</svg>
