<svg width="26" height="15" viewBox="0 0 26 15" fill="none" xmlns="http://www.w3.org/2000/svg">
<path d="M9.78 10.9H3.7L2.58 14H0.66L5.7 0.14H7.8L12.82 14H10.9L9.78 10.9ZM9.26 9.42L6.74 2.38L4.22 9.42H9.26ZM14.3366 8.48C14.3366 7.36 14.5632 6.38 15.0166 5.54C15.4699 4.68667 16.0899 4.02667 16.8766 3.56C17.6766 3.09333 18.5632 2.86 19.5366 2.86C20.4966 2.86 21.3299 3.06667 22.0366 3.48C22.7432 3.89333 23.2699 4.41333 23.6166 5.04V3.04H25.4566V14H23.6166V11.96C23.2566 12.6 22.7166 13.1333 21.9966 13.56C21.2899 13.9733 20.4632 14.18 19.5166 14.18C18.5432 14.18 17.6632 13.94 16.8766 13.46C16.0899 12.98 15.4699 12.3067 15.0166 11.44C14.5632 10.5733 14.3366 9.58667 14.3366 8.48ZM23.6166 8.5C23.6166 7.67333 23.4499 6.95333 23.1166 6.34C22.7832 5.72667 22.3299 5.26 21.7566 4.94C21.1966 4.60667 20.5766 4.44 19.8966 4.44C19.2166 4.44 18.5966 4.6 18.0366 4.92C17.4766 5.24 17.0299 5.70667 16.6966 6.32C16.3632 6.93333 16.1966 7.65333 16.1966 8.48C16.1966 9.32 16.3632 10.0533 16.6966 10.68C17.0299 11.2933 17.4766 11.7667 18.0366 12.1C18.5966 12.42 19.2166 12.58 19.8966 12.58C20.5766 12.58 21.1966 12.42 21.7566 12.1C22.3299 11.7667 22.7832 11.2933 23.1166 10.68C23.4499 10.0533 23.6166 9.32667 23.6166 8.5Z" fill="black"/>
</svg>
