<svg width="20" height="12" viewBox="0 0 20 12" fill="none" xmlns="http://www.w3.org/2000/svg">
<path d="M12.178 10.478V11H7.408V10.478L8.29 10.514C8.65 10.55 8.83 10.406 8.83 10.082C8.83 9.878 8.77 9.644 8.65 9.38L7.768 7.256H3.574L2.746 9.272C2.578 9.644 2.494 9.944 2.494 10.172C2.494 10.424 2.626 10.544 2.89 10.532L3.754 10.478V11H0.64V10.478L1.108 10.514H1.18C1.42 10.514 1.618 10.4 1.774 10.172C1.954 9.908 2.134 9.56 2.314 9.128L6.076 0.073999H6.544L10.342 9.164C10.51 9.596 10.684 9.938 10.864 10.19C11.032 10.406 11.242 10.514 11.494 10.514H11.584L12.178 10.478ZM3.79 6.752H7.552L5.662 2.216L3.79 6.752ZM19.5505 10.532V11H16.9945C17.0065 10.916 17.0185 10.808 17.0305 10.676C17.0545 10.532 17.0665 10.418 17.0665 10.334L17.1025 9.632C16.8385 10.148 16.4965 10.52 16.0765 10.748C15.6685 10.976 15.1765 11.09 14.6005 11.09C13.8445 11.09 13.2685 10.922 12.8725 10.586C12.4885 10.238 12.2965 9.728 12.2965 9.056C12.2965 8.132 12.6805 7.454 13.4485 7.022C14.2285 6.578 15.4465 6.356 17.1025 6.356V5.312C17.1025 4.748 16.9705 4.346 16.7065 4.106C16.4425 3.866 16.0165 3.746 15.4285 3.746C14.5165 3.746 14.0605 3.998 14.0605 4.502C14.0605 4.598 14.0845 4.712 14.1325 4.844C14.1925 4.964 14.2225 5.078 14.2225 5.186C14.2225 5.39 14.1565 5.546 14.0245 5.654C13.8925 5.75 13.7245 5.798 13.5205 5.798C13.2685 5.798 13.0705 5.72 12.9265 5.564C12.7945 5.408 12.7285 5.204 12.7285 4.952C12.7285 4.448 12.9925 4.04 13.5205 3.728C14.0485 3.416 14.7565 3.26 15.6445 3.26C17.6485 3.26 18.6505 4.106 18.6505 5.798V10.226C18.6505 10.454 18.7285 10.568 18.8845 10.568L19.5505 10.532ZM15.1405 10.442C15.6685 10.442 16.1185 10.226 16.4905 9.794C16.8625 9.35 17.0665 8.78 17.1025 8.084V6.842C15.9745 6.842 15.1645 7.01 14.6725 7.346C14.1805 7.67 13.9345 8.192 13.9345 8.912C13.9345 9.416 14.0365 9.8 14.2405 10.064C14.4565 10.316 14.7565 10.442 15.1405 10.442Z" fill="black"/>
</svg>
