<svg width="386" height="103" viewBox="0 0 386 103" fill="none" xmlns="http://www.w3.org/2000/svg">
<path d="M47.3 27.7C47.3 33.5 45.3 38.3333 41.3 42.2C37.3667 46 31.3333 47.9 23.2 47.9H9.8V77H0.700001V7.3H23.2C31.0667 7.3 37.0333 9.2 41.1 13C45.2333 16.8 47.3 21.7 47.3 27.7ZM23.2 40.4C28.2667 40.4 32 39.3 34.4 37.1C36.8 34.9 38 31.7667 38 27.7C38 19.1 33.0667 14.8 23.2 14.8H9.8V40.4H23.2ZM82.5102 77.9C77.3768 77.9 72.7102 76.7333 68.5102 74.4C64.3768 72.0667 61.1102 68.7667 58.7102 64.5C56.3768 60.1667 55.2102 55.1667 55.2102 49.5C55.2102 43.9 56.4102 38.9667 58.8102 34.7C61.2768 30.3667 64.6102 27.0667 68.8102 24.8C73.0102 22.4667 77.7102 21.3 82.9102 21.3C88.1102 21.3 92.8102 22.4667 97.0102 24.8C101.21 27.0667 104.51 30.3333 106.91 34.6C109.377 38.8667 110.61 43.8333 110.61 49.5C110.61 55.1667 109.343 60.1667 106.81 64.5C104.343 68.7667 100.977 72.0667 96.7102 74.4C92.4435 76.7333 87.7102 77.9 82.5102 77.9ZM82.5102 69.9C85.7768 69.9 88.8435 69.1333 91.7102 67.6C94.5768 66.0667 96.8768 63.7667 98.6102 60.7C100.41 57.6333 101.31 53.9 101.31 49.5C101.31 45.1 100.443 41.3667 98.7102 38.3C96.9768 35.2333 94.7102 32.9667 91.9102 31.5C89.1102 29.9667 86.0768 29.2 82.8102 29.2C79.4768 29.2 76.4102 29.9667 73.6102 31.5C70.8768 32.9667 68.6768 35.2333 67.0102 38.3C65.3435 41.3667 64.5102 45.1 64.5102 49.5C64.5102 53.9667 65.3102 57.7333 66.9102 60.8C68.5768 63.8667 70.7768 66.1667 73.5102 67.7C76.2435 69.1667 79.2435 69.9 82.5102 69.9ZM131.675 32.3C133.475 29.1667 136.142 26.5667 139.675 24.5C143.275 22.3667 147.442 21.3 152.175 21.3C157.042 21.3 161.442 22.4667 165.375 24.8C169.375 27.1333 172.508 30.4333 174.775 34.7C177.042 38.9 178.175 43.8 178.175 49.4C178.175 54.9333 177.042 59.8667 174.775 64.2C172.508 68.5333 169.375 71.9 165.375 74.3C161.442 76.7 157.042 77.9 152.175 77.9C147.508 77.9 143.375 76.8667 139.775 74.8C136.242 72.6667 133.542 70.0333 131.675 66.9V103H122.575V22.2H131.675V32.3ZM168.875 49.4C168.875 45.2667 168.042 41.6667 166.375 38.6C164.708 35.5333 162.442 33.2 159.575 31.6C156.775 30 153.675 29.2 150.275 29.2C146.942 29.2 143.842 30.0333 140.975 31.7C138.175 33.3 135.908 35.6667 134.175 38.8C132.508 41.8667 131.675 45.4333 131.675 49.5C131.675 53.6333 132.508 57.2667 134.175 60.4C135.908 63.4667 138.175 65.8333 140.975 67.5C143.842 69.1 146.942 69.9 150.275 69.9C153.675 69.9 156.775 69.1 159.575 67.5C162.442 65.8333 164.708 63.4667 166.375 60.4C168.042 57.2667 168.875 53.6 168.875 49.4ZM199.253 32.3C201.053 29.1667 203.72 26.5667 207.253 24.5C210.853 22.3667 215.02 21.3 219.753 21.3C224.62 21.3 229.02 22.4667 232.953 24.8C236.953 27.1333 240.086 30.4333 242.353 34.7C244.62 38.9 245.753 43.8 245.753 49.4C245.753 54.9333 244.62 59.8667 242.353 64.2C240.086 68.5333 236.953 71.9 232.953 74.3C229.02 76.7 224.62 77.9 219.753 77.9C215.086 77.9 210.953 76.8667 207.353 74.8C203.82 72.6667 201.12 70.0333 199.253 66.9V103H190.153V22.2H199.253V32.3ZM236.453 49.4C236.453 45.2667 235.62 41.6667 233.953 38.6C232.286 35.5333 230.02 33.2 227.153 31.6C224.353 30 221.253 29.2 217.853 29.2C214.52 29.2 211.42 30.0333 208.553 31.7C205.753 33.3 203.486 35.6667 201.753 38.8C200.086 41.8667 199.253 45.4333 199.253 49.5C199.253 53.6333 200.086 57.2667 201.753 60.4C203.486 63.4667 205.753 65.8333 208.553 67.5C211.42 69.1 214.52 69.9 217.853 69.9C221.253 69.9 224.353 69.1 227.153 67.5C230.02 65.8333 232.286 63.4667 233.953 60.4C235.62 57.2667 236.453 53.6 236.453 49.4ZM262.431 13.3C260.698 13.3 259.231 12.7 258.031 11.5C256.831 10.3 256.231 8.83333 256.231 7.09999C256.231 5.36666 256.831 3.9 258.031 2.7C259.231 1.5 260.698 0.899996 262.431 0.899996C264.098 0.899996 265.498 1.5 266.631 2.7C267.831 3.9 268.431 5.36666 268.431 7.09999C268.431 8.83333 267.831 10.3 266.631 11.5C265.498 12.7 264.098 13.3 262.431 13.3ZM266.831 22.2V77H257.731V22.2H266.831ZM309.041 21.2C315.707 21.2 321.107 23.2333 325.241 27.3C329.374 31.3 331.441 37.1 331.441 44.7V77H322.441V46C322.441 40.5333 321.074 36.3667 318.341 33.5C315.607 30.5667 311.874 29.1 307.141 29.1C302.341 29.1 298.507 30.6 295.641 33.6C292.841 36.6 291.441 40.9667 291.441 46.7V77H282.341V22.2H291.441V30C293.241 27.2 295.674 25.0333 298.741 23.5C301.874 21.9667 305.307 21.2 309.041 21.2ZM365.705 77.9C361.505 77.9 357.739 77.2 354.405 75.8C351.072 74.3333 348.439 72.3333 346.505 69.8C344.572 67.2 343.505 64.2333 343.305 60.9H352.705C352.972 63.6333 354.239 65.8667 356.505 67.6C358.839 69.3333 361.872 70.2 365.605 70.2C369.072 70.2 371.805 69.4333 373.805 67.9C375.805 66.3667 376.805 64.4333 376.805 62.1C376.805 59.7 375.739 57.9333 373.605 56.8C371.472 55.6 368.172 54.4333 363.705 53.3C359.639 52.2333 356.305 51.1667 353.705 50.1C351.172 48.9667 348.972 47.3333 347.105 45.2C345.305 43 344.405 40.1333 344.405 36.6C344.405 33.8 345.239 31.2333 346.905 28.9C348.572 26.5667 350.939 24.7333 354.005 23.4C357.072 22 360.572 21.3 364.505 21.3C370.572 21.3 375.472 22.8333 379.205 25.9C382.939 28.9667 384.939 33.1667 385.205 38.5H376.105C375.905 35.6333 374.739 33.3333 372.605 31.6C370.539 29.8667 367.739 29 364.205 29C360.939 29 358.339 29.7 356.405 31.1C354.472 32.5 353.505 34.3333 353.505 36.6C353.505 38.4 354.072 39.9 355.205 41.1C356.405 42.2333 357.872 43.1667 359.605 43.9C361.405 44.5667 363.872 45.3333 367.005 46.2C370.939 47.2667 374.139 48.3333 376.605 49.4C379.072 50.4 381.172 51.9333 382.905 54C384.705 56.0667 385.639 58.7667 385.705 62.1C385.705 65.1 384.872 67.8 383.205 70.2C381.539 72.6 379.172 74.5 376.105 75.9C373.105 77.2333 369.639 77.9 365.705 77.9Z" fill="black"/>
</svg>
