<svg width="211" height="61" viewBox="0 0 211 61" fill="none" xmlns="http://www.w3.org/2000/svg">
<path d="M0.5 0.3H22.4V3.3L17.5 3.1H17.3C16.7667 3.1 16.3333 3.3 16 3.7C15.6667 4.1 15.5 4.56666 15.5 5.1V40.1C15.5 45.7 17.0333 50.0667 20.1 53.2C23.2333 56.3333 27.6 57.9 33.2 57.9C36.4 57.9 39.3 57.1333 41.9 55.6C44.5 54.0667 46.5333 51.9667 48 49.3C49.4667 46.5667 50.2 43.5333 50.2 40.2V5.2C50.2 4.53333 50.0333 4 49.7 3.6C49.3667 3.2 48.9333 3.03333 48.4 3.1L43.5 3.3V0.3H59.6V3.3L55.7 3.1H55.5C54.9667 3.1 54.5333 3.3 54.2 3.7C53.8667 4.1 53.7 4.56666 53.7 5.1V41.1C53.7 44.9 52.7333 48.3333 50.8 51.4C48.8667 54.4 46.2 56.7667 42.8 58.5C39.4667 60.1667 35.6667 61 31.4 61C23.2667 61 17.0333 59.2333 12.7 55.7C8.36667 52.1 6.2 46.9 6.2 40.1V5.2C6.2 4.6 6 4.1 5.6 3.7C5.26667 3.23333 4.83333 3.03333 4.3 3.1L0.5 3.3V0.3ZM112.637 57.4V60H93.1367V57.4L97.7367 57.6C98.6034 57.4 99.0367 56.7667 99.0367 55.7V33C99.0367 29.8 98.8701 27.3333 98.5367 25.6C98.2701 23.8667 97.6701 22.5333 96.7367 21.6C95.8034 20.6667 94.3367 20.2 92.3367 20.2C88.5367 20.2 85.4367 21.8333 83.0367 25.1C80.7034 28.3 79.4367 32.6333 79.2367 38.1V55.7C79.2367 56.9667 79.6701 57.6 80.5367 57.6L85.1367 57.4V60H65.6367V57.4L69.3367 57.6C70.2034 57.4 70.6367 56.7667 70.6367 55.7V22.4C70.6367 21.2667 70.2034 20.6 69.3367 20.4L65.6367 20.6V18H79.7367C79.4034 19 79.2367 20.1667 79.2367 21.5V27C80.6367 23.8667 82.6367 21.4333 85.2367 19.7C87.8367 17.9 90.8367 17 94.2367 17C98.9701 17 102.37 18.1333 104.437 20.4C106.57 22.6 107.637 26.2 107.637 31.2V55.7C107.637 56.9667 108.07 57.6 108.937 57.6L112.637 57.4ZM165.176 57.4V60H145.676V57.4L150.276 57.6C151.142 57.4 151.576 56.7667 151.576 55.7V33C151.576 29.8 151.409 27.3333 151.076 25.6C150.809 23.8667 150.209 22.5333 149.276 21.6C148.342 20.6667 146.876 20.2 144.876 20.2C141.076 20.2 137.976 21.8333 135.576 25.1C133.242 28.3 131.976 32.6333 131.776 38.1V55.7C131.776 56.9667 132.209 57.6 133.076 57.6L137.676 57.4V60H118.176V57.4L121.876 57.6C122.742 57.4 123.176 56.7667 123.176 55.7V22.4C123.176 21.2667 122.742 20.6 121.876 20.4L118.176 20.6V18H132.276C131.942 19 131.776 20.1667 131.776 21.5V27C133.176 23.8667 135.176 21.4333 137.776 19.7C140.376 17.9 143.376 17 146.776 17C151.509 17 154.909 18.1333 156.976 20.4C159.109 22.6 160.176 26.2 160.176 31.2V55.7C160.176 56.9667 160.609 57.6 161.476 57.6L165.176 57.4ZM210.215 57.4V60H196.015C196.082 59.5333 196.148 58.9333 196.215 58.2C196.348 57.4 196.415 56.7667 196.415 56.3L196.615 52.4C195.148 55.2667 193.248 57.3333 190.915 58.6C188.648 59.8667 185.915 60.5 182.715 60.5C178.515 60.5 175.315 59.5667 173.115 57.7C170.982 55.7667 169.915 52.9333 169.915 49.2C169.915 44.0667 172.048 40.3 176.315 37.9C180.648 35.4333 187.415 34.2 196.615 34.2V28.4C196.615 25.2667 195.882 23.0333 194.415 21.7C192.948 20.3667 190.582 19.7 187.315 19.7C182.248 19.7 179.715 21.1 179.715 23.9C179.715 24.4333 179.848 25.0667 180.115 25.8C180.448 26.4667 180.615 27.1 180.615 27.7C180.615 28.8333 180.248 29.7 179.515 30.3C178.782 30.8333 177.848 31.1 176.715 31.1C175.315 31.1 174.215 30.6667 173.415 29.8C172.682 28.9333 172.315 27.8 172.315 26.4C172.315 23.6 173.782 21.3333 176.715 19.6C179.648 17.8667 183.582 17 188.515 17C199.648 17 205.215 21.7 205.215 31.1V55.7C205.215 56.9667 205.648 57.6 206.515 57.6L210.215 57.4ZM185.715 56.9C188.648 56.9 191.148 55.7 193.215 53.3C195.282 50.8333 196.415 47.6667 196.615 43.8V36.9C190.348 36.9 185.848 37.8333 183.115 39.7C180.382 41.5 179.015 44.4 179.015 48.4C179.015 51.2 179.582 53.3333 180.715 54.8C181.915 56.2 183.582 56.9 185.715 56.9Z" fill="black"/>
</svg>
