<svg version="1.2" xmlns="http://www.w3.org/2000/svg" viewBox="0 0 454 454" width="454" height="454">
	<title>&lt;Path&gt;</title>
	<style>
		.s0 { fill: #fce3c3 } 
		.s1 { fill: #f7931e } 
		.s2 { fill: #c15252 } 
		.s3 { fill: #ffcfca } 
		.s4 { fill: #f9bfbb } 
		.s5 { fill: #1f3c49 } 
		.s6 { fill: #ffffff } 
		.s7 { fill: #d55454 } 
		.s8 { fill: #f37c7c } 
		.s9 { fill: #ad4242 } 
	</style>
	<path id="&lt;Path&gt;" class="s0" d="m453.7 227.2c0 125.2-101.5 226.7-226.7 226.7-125.1 0-226.6-101.5-226.6-226.7 0-125.2 101.5-226.6 226.6-226.6 125.2 0 226.7 101.4 226.7 226.6z"/>
	<path id="&lt;Path&gt;" class="s1" d="m357.8 277.3c0.2-2.7 0.1-5.4-0.3-8.1-1.1-6.7-4.2-13.1-9.5-17.4-4.6-3.8-10.3-5.7-14.9-9.3-5.4-4.1-9.1-10.3-11.6-16.9-3.2-8.4-4.9-17.7-6.6-26.5-2-9.6-3.4-19.4-4.8-29.1-2.5-17.8-4.9-36.1-11.8-52.5-7.3-17.2-19.9-29.9-36.2-36.3-16.3-6.4-34.3-7.5-51.1-2.9-21.5 5.9-38.9 22.4-48.6 43.8-6.5 14.3-10 29.9-12.3 45.6-1.7 11.4-2.9 23-6.3 34-2.5 8.1-6.5 16-12.2 22-6.4 6.6-15.4 8.7-22.9 13.6-8.2 5.4-13.7 14.8-15.7 24.9-23.5 9.4-40.1 32.4-40.1 59.2 0 35.3 28.5 63.8 63.8 63.8 9.3 0 18.1-2 26.1-5.6q3.4 2 7 3.6c4.9 31.9 32.4 56.2 65.6 56.2 15.3 0 29.4-5.2 40.7-13.9q4.4 0.8 9.1 0.8c28 0 50.9-21.5 53.1-48.8q4.4 0.7 9 0.8c30.4 0 55-24.7 55-55.1 0-19.1-9.7-36-24.5-45.9z"/>
	<path id="&lt;Path&gt;" class="s2" d="m456.2 512.8c-3 4-65.5-5.9-86.3-23.8-7.7-6.5-16-18.3-23.1-29.8-9.7-15.6-17.2-30.8-17.7-31.9q-0.1-0.1-0.1-0.1c0 0-0.8 76-1.7 80.4-1.6 7.8 23.6 84.8 20.1 88.3-44.6 44.6-201.9 27.9-226.4-20.1-2.8-5.6 35-78.7 35-78.7 0 0-18.7-75.2-21.5-93.4q-0.3-1.7-0.3-2.7c-1.3 3.7-5.3 12.8-10.2 23.5-10.6 23.1-20.2 55.8-20.4 56-1.7 1.2-13.5 53.7-17.5 57.7-5.8 5.7-60.1-12.7-62.1-16.6-2.2-4.5 4.9-50 15.8-78.7 21.8-57.7 48-119.7 76.9-141.9 13.7-10.6 66.9-35.4 129-30.7 35 2.6 83.3 25.7 92.5 34.3 32.7 30.8 62.1 106.4 65.4 114 14.7 5.8 68.2 30.8 68.4 33.7 1 10.9-8.3 50.4-15.8 60.5z"/>
	<path id="&lt;Path&gt;" class="s3" d="m261.9 290.2c-3.7 11.8-16.1 14.6-27 14.5-12.1-0.2-28.1-2.9-32.4-16.2-3-9.1-0.8-19.6-0.8-29 0.1-6.2-0.1-12.5-0.7-18.7q-0.4-5.8-1.2-11.5-0.7-4.6-1.6-9.1-0.5-3.1-1.2-6.2c-0.3-1.4-2-5.2-0.4-6.2 1.6-0.9 4.7 1.8 6 2.5 18.7 11.3 38.3 21.2 58.6 29.5 0.7 0.4 1.6 0.7 2.1 1.4 0.4 0.7 0.4 1.6 0.4 2.4q0 9.9 0 19.7c0 2.6 0.1 5.1 0.1 7.7 0.2 6.5 0.1 12.9-1.9 19.2z"/>
	<path id="&lt;Path&gt;" class="s4" d="m263.8 271c-17.5-4.9-34.4-12.1-49.8-21.7-4.3-2.7-8.7-5.5-13-8.5q-0.4-5.8-1.2-11.5-0.7-4.6-1.6-9.1-0.5-3.1-1.2-6.2c-0.3-1.4-2-5.2-0.4-6.2 1.6-0.9 4.7 1.8 6 2.5 18.7 11.3 38.3 21.2 58.6 29.5 0.7 0.4 1.6 0.7 2.1 1.4 0.4 0.7 0.4 1.6 0.4 2.4q0 9.9 0 19.7c0 2.6 0.1 5.1 0.1 7.7z"/>
	<path id="&lt;Path&gt;" class="s3" d="m204.5 209.4c-7.8 5.4-18.5 6.4-27.1 2.3-7.2-3.5-12.6-10.5-14.4-18.3q-0.5-2.1-0.6-4.3c-0.1-2.5 0.2-5.1 1.1-7.6 2.2-5.9 8.2-10.1 14.5-10.5 6.3-0.4 12.6 2.8 16.4 7.9l3.9 11.7z"/>
	<path id="&lt;Path&gt;" class="s3" d="m293 223.2c-3.8 9.2-9 17.5-17.5 22.9-7.6 4.8-16.7 7.1-25.6 6.7-9.9-0.4-19.4-3.9-27.8-9.2-4.2-2.6-8.1-5.7-11.7-9.1-6.2-6-11.4-12.9-15.9-20.2-7.3-11.9-13.2-25.5-16.1-39.5-3.3-15.9-2.9-32.3 3.6-47.5 2.6-6.2 6.3-11.9 10.8-16.9 18.9-21.2 51.6-24.8 74.8-8.4 12.1 8.6 21.1 21.4 25.9 35.4q2.3 6.6 3.9 13.5c5.6 23.8 4.9 49.7-4.4 72.3z"/>
	<path id="&lt;Path&gt;" class="s5" d="m245 180.7c-1.3 0.1-3-1.9-3.5-4.8-0.2-1.6-0.1-3.1 0.5-4.3 0.1-0.4 0.6-1.3 1.4-1.4q0-0.1 0.1-0.1c1.2 0 3 2 3.4 4.9 0.3 1.5 0.1 3.1-0.4 4.3-0.2 0.3-0.7 1.3-1.4 1.4q-0.1 0-0.1 0z"/>
	<path id="&lt;Path&gt;" class="s5" d="m282.3 177.1c-1.1 0.1-2.8-1.7-3.3-4.7-0.3-1.5-0.1-3 0.4-4.1 0.3-0.8 0.8-1.3 1.3-1.4q0.1 0 0.1 0c1.1-0.1 2.9 1.7 3.3 4.7 0.3 1.5 0.1 3-0.4 4.1-0.3 0.8-0.8 1.3-1.3 1.4q-0.1 0-0.1 0z"/>
	<path id="&lt;Path&gt;" class="s5" d="m263.5 183.9c1-1.1 2.7-1.6 4.2-1.3 1.6 0.3 3.1 1.4 3.8 2.9 0.8 1.4 0.9 3.2 0.2 4.7-0.7 1.4-2 2.5-3.4 2.7 1-1 1.5-2.1 1.7-3.3 0.3-1.1 0.1-2.1-0.4-3.1-0.5-1-1.3-1.8-2.3-2.2-1.1-0.5-2.4-0.7-3.8-0.4z"/>
	<path id="&lt;Path&gt;" class="s5" d="m245 156.5q-0.2 0.1-0.4 0c-1.4-0.4-2.9-0.5-4.4-0.4q-0.3 0.1-0.6 0.1c-1.3 0.2-2.6 0.7-3.8 1.4q-0.1 0.1-0.3 0.1-0.2 0-0.3 0c-0.2-0.1-0.4-0.2-0.6-0.4-0.2-0.4-0.1-1 0.3-1.2 1.3-0.8 2.9-1.3 4.4-1.6q0.4 0 0.7-0.1c1.7-0.2 3.5 0 5.1 0.5 0.5 0.1 0.7 0.6 0.6 1-0.1 0.4-0.4 0.6-0.7 0.6z"/>
	<path id="&lt;Path&gt;" class="s5" d="m274.4 151.3q-0.1 0-0.2 0-0.3-0.2-0.4-0.5c-0.2-0.4 0-0.9 0.4-1.1 2.2-0.9 4.7-1.2 7-0.7q0.4 0.1 0.7 0.1 0.8 0.3 1.7 0.6c0.4 0.2 0.6 0.7 0.4 1.1-0.2 0.4-0.5 0.6-1 0.5q-0.1 0-0.1 0-0.7-0.3-1.5-0.5-0.2-0.1-0.5-0.1c-2-0.4-4.1-0.2-6 0.6q-0.2 0.1-0.5 0z"/>
	<path id="&lt;Path&gt;" class="s6" d="m244.3 172.1c-1.9-0.4-2.5 2.4-0.6 2.8 1.8 0.4 2.4-2.4 0.6-2.8z"/>
	<path id="&lt;Path&gt;" class="s6" d="m282.1 168.4c-1.8-0.3-2.4 2.5-0.6 2.9 1.9 0.3 2.5-2.5 0.6-2.9z"/>
	<path id="&lt;Path&gt;" class="s7" d="m286.2 198.2c0.5 5-0.4 9.8-2.4 13.9-3.1 6.6-9 11.2-16.1 12-7.2 0.7-14.1-2.9-18.4-8.9-2.6-3.6-4.3-7.9-4.8-12.8q0-0.2-0.1-0.5l41.7-4.2q0 0.2 0.1 0.5z"/>
	<path id="&lt;Path&gt;" class="s6" d="m284.4 197.8c-4.2 5.5-10.7 9.3-18.3 10-7.6 0.8-14.8-1.6-20-6.1z"/>
	<path id="&lt;Path&gt;" class="s8" d="m283.8 212.1c-3.1 6.6-9 11.2-16.1 12-7.2 0.7-14.1-2.9-18.4-8.9 6.9-2.3 14.2-3.6 21.5-3.8q6.6-0.2 13 0.7z"/>
	<path id="&lt;Path&gt;" class="s4" d="m242.6 192.2c0.3 4.7-4.7 8.8-11.2 9.2-6.4 0.3-11.8-3.2-12.1-8-0.2-4.7 4.8-8.8 11.2-9.2 6.5-0.3 11.9 3.2 12.1 8z"/>
	<path id="&lt;Path&gt;" class="s4" d="m296.9 184.5c0.2 3.2-3.2 6-7.6 6.2-4.3 0.2-8-2.2-8.1-5.4-0.2-3.2 3.2-6 7.5-6.2 4.4-0.2 8 2.2 8.2 5.4z"/>
	<path id="&lt;Path&gt;" class="s1" d="m293.3 132.1c-2.2-3.5-5.3-7.4-9.4-7-1.5 0.2-2.8 0.9-4.3 1.3-3 0.9-6.4 0.2-8.9-1.6-2.1-1.6-3.6-3.9-5.8-5.3-2.7-1.5-6.3-1.3-8.7 0.5-2.2 1.6-3.3 4.1-5 6.2-3.7 4.8-9.8 7.1-15.9 7.5-6 0.3-12-1.1-17.7-2.8-2.8-0.8-5.9-1.6-8.4-0.2-1.7 1-2.8 2.8-3.5 4.7-1.8 4.7-2.1 9.9-1.8 15 0.5 6.1 1.8 12.7-1.3 18-2.2 3.7-6.4 6.1-10.7 6-4.1 0-7.8-2.1-11.6-3.1-3.9-1.1-8.8-0.8-11.1 2.5-1.7-16.6-2-34 4.8-49.3 6.2-14 18-25.2 32-31.3 13.9-6.2 29.9-7.3 44.8-4 5.6 1.3 11.2 3.2 16.2 6.1 12.7 7.5 21.6 22.8 26.3 36.8z"/>
	<path id="&lt;Path&gt;" class="s9" d="m134.5 403.7q-0.3-1.7-0.3-2.7c-1.3 3.7-5.3 12.8-10.2 23.5 4.3-32.3 6.6-70.3 6.6-70.3 0 0 2.2 30.1 3.9 49.5z"/>
	<path id="&lt;Path&gt;" class="s9" d="m346.8 459.2c-9.7-15.6-17.2-30.8-17.7-31.9-1.7-28.1-4.4-86-5.4-95.2 12.2 39.6 14.2 81 22 121.7q0.5 2.7 1.1 5.4z"/>
</svg>