<svg width="20" height="12" viewBox="0 0 20 12" fill="none" xmlns="http://www.w3.org/2000/svg">
<path d="M2.82848 11H0.356889L4.12287 0.0909088H7.09517L10.8558 11H8.38423L5.65163 2.58381H5.56641L2.82848 11ZM2.67401 6.712H8.51207V8.51243H2.67401V6.712ZM14.4593 11.1545C13.9373 11.1545 13.4721 11.0639 13.0637 10.8828C12.6554 10.6982 12.3322 10.4265 12.0943 10.0678C11.8599 9.70561 11.7427 9.25462 11.7427 8.71484C11.7427 8.2603 11.8262 7.87855 11.9931 7.5696C12.16 7.26065 12.3873 7.01207 12.6749 6.82386C12.9625 6.63565 13.2892 6.49361 13.655 6.39773C14.0243 6.30185 14.4114 6.23438 14.8162 6.19531C15.2921 6.1456 15.6756 6.09943 15.9668 6.05682C16.258 6.01065 16.4693 5.94318 16.6007 5.8544C16.7321 5.76562 16.7978 5.63423 16.7978 5.46023V5.42827C16.7978 5.09091 16.6912 4.8299 16.4782 4.64524C16.2686 4.46058 15.9703 4.36825 15.5833 4.36825C15.1749 4.36825 14.85 4.45881 14.6085 4.63991C14.367 4.81747 14.2072 5.04119 14.1291 5.31108L12.0304 5.14062C12.1369 4.64347 12.3464 4.21378 12.6589 3.85156C12.9714 3.4858 13.3745 3.20526 13.8681 3.00994C14.3652 2.81108 14.9405 2.71165 15.5939 2.71165C16.0485 2.71165 16.4835 2.76491 16.899 2.87145C17.318 2.97798 17.6891 3.14311 18.0123 3.36683C18.339 3.59055 18.5964 3.8782 18.7846 4.22976C18.9728 4.57777 19.0669 4.99503 19.0669 5.48153V11H16.915V9.86541H16.851C16.7196 10.1211 16.5439 10.3466 16.3237 10.5419C16.1035 10.7337 15.839 10.8846 15.53 10.9947C15.2211 11.1012 14.8642 11.1545 14.4593 11.1545ZM15.1092 9.58842C15.443 9.58842 15.7377 9.52273 15.9934 9.39134C16.2491 9.25639 16.4498 9.07528 16.5953 8.84801C16.7409 8.62074 16.8137 8.36328 16.8137 8.07564V7.20739C16.7427 7.25355 16.6451 7.29616 16.5208 7.33523C16.4 7.37074 16.2633 7.40447 16.1106 7.43643C15.9579 7.46484 15.8052 7.49148 15.6525 7.51634C15.4998 7.53764 15.3613 7.55717 15.237 7.57493C14.9707 7.61399 14.7381 7.67614 14.5392 7.76136C14.3404 7.84659 14.1859 7.962 14.0758 8.1076C13.9657 8.24964 13.9107 8.4272 13.9107 8.64027C13.9107 8.94922 14.0225 9.18537 14.2463 9.34872C14.4735 9.50852 14.7612 9.58842 15.1092 9.58842Z" fill="black"/>
</svg>
