<svg width="26" height="16" viewBox="0 0 26 16" fill="none" xmlns="http://www.w3.org/2000/svg">
<path d="M3.77131 15H0.475852L5.49716 0.454545H9.46023L14.4744 15H11.179L7.53551 3.77841H7.42188L3.77131 15ZM3.56534 9.28267H11.3494V11.6832H3.56534V9.28267ZM19.2791 15.206C18.5831 15.206 17.9628 15.0852 17.4183 14.8438C16.8738 14.5975 16.4429 14.2353 16.1257 13.7571C15.8132 13.2741 15.657 12.6728 15.657 11.9531C15.657 11.3471 15.7682 10.8381 15.9908 10.4261C16.2133 10.0142 16.5163 9.68277 16.8999 9.43182C17.2834 9.18087 17.719 8.99148 18.2067 8.86364C18.6991 8.7358 19.2152 8.64583 19.755 8.59375C20.3894 8.52746 20.9008 8.46591 21.2891 8.40909C21.6773 8.34754 21.959 8.25758 22.1342 8.1392C22.3094 8.02083 22.397 7.84564 22.397 7.61364V7.57102C22.397 7.12121 22.255 6.7732 21.9709 6.52699C21.6915 6.28078 21.2938 6.15767 20.7777 6.15767C20.2332 6.15767 19.8 6.27841 19.478 6.51989C19.156 6.75663 18.9429 7.05492 18.8388 7.41477L16.0405 7.1875C16.1825 6.52462 16.4619 5.9517 16.8786 5.46875C17.2952 4.98106 17.8326 4.60701 18.4908 4.34659C19.1536 4.08144 19.9207 3.94886 20.7919 3.94886C21.398 3.94886 21.978 4.01989 22.532 4.16193C23.0907 4.30398 23.5855 4.52415 24.0163 4.82244C24.4519 5.12074 24.7952 5.50426 25.0462 5.97301C25.2971 6.43703 25.4226 6.99337 25.4226 7.64205V15H22.5533V13.4872H22.468C22.2929 13.8281 22.0585 14.1288 21.7649 14.3892C21.4714 14.6449 21.1186 14.8461 20.7067 14.9929C20.2947 15.1349 19.8189 15.206 19.2791 15.206ZM20.1456 13.1179C20.5907 13.1179 20.9837 13.0303 21.3246 12.8551C21.6655 12.6752 21.933 12.4337 22.1271 12.1307C22.3213 11.8277 22.4183 11.4844 22.4183 11.1009V9.94318C22.3236 10.0047 22.1934 10.0616 22.0277 10.1136C21.8667 10.161 21.6844 10.206 21.4808 10.2486C21.2772 10.2865 21.0736 10.322 20.87 10.3551C20.6664 10.3835 20.4818 10.4096 20.3161 10.4332C19.9609 10.4853 19.6508 10.5682 19.3857 10.6818C19.1205 10.7955 18.9145 10.9493 18.7678 11.1435C18.621 11.3329 18.5476 11.5696 18.5476 11.8537C18.5476 12.2656 18.6967 12.5805 18.995 12.7983C19.2981 13.0114 19.6816 13.1179 20.1456 13.1179Z" fill="black"/>
</svg>
