<svg width="30" height="20" viewBox="0 0 30 20" fill="none" xmlns="http://www.w3.org/2000/svg">
<path d="M3.53338 19H0.621449L7.16442 0.818181H10.3338L16.8768 19H13.9648L8.82457 4.12074H8.68253L3.53338 19ZM4.02166 11.88H13.4677V14.1882H4.02166V11.88ZM23.2577 19.3018C22.3936 19.3018 21.6124 19.142 20.914 18.8224C20.2156 18.4969 19.6622 18.0264 19.2538 17.4109C18.8514 16.7953 18.6501 16.0407 18.6501 15.147C18.6501 14.3776 18.7981 13.7443 19.094 13.2472C19.3899 12.75 19.7894 12.3564 20.2925 12.0664C20.7956 11.7764 21.3579 11.5574 21.9793 11.4094C22.6008 11.2615 23.234 11.149 23.8792 11.0721C24.6959 10.9774 25.3588 10.9004 25.8678 10.8413C26.3768 10.7762 26.7467 10.6726 26.9775 10.5305C27.2084 10.3885 27.3238 10.1577 27.3238 9.83807V9.77592C27.3238 9.00059 27.1048 8.39986 26.6668 7.97372C26.2348 7.54758 25.5896 7.33452 24.7314 7.33452C23.8377 7.33452 23.1334 7.53279 22.6185 7.92933C22.1095 8.31996 21.7574 8.75497 21.5621 9.23438L19.0674 8.66619C19.3633 7.83759 19.7954 7.1688 20.3635 6.6598C20.9376 6.14489 21.5976 5.77202 22.3433 5.54119C23.089 5.30445 23.8733 5.18608 24.6959 5.18608C25.2404 5.18608 25.8175 5.25118 26.4271 5.38139C27.0426 5.50568 27.6167 5.73651 28.1494 6.07386C28.688 6.41122 29.1289 6.89358 29.4722 7.52095C29.8155 8.1424 29.9871 8.95028 29.9871 9.9446V19H27.3948V17.1357H27.2883C27.1166 17.4789 26.8592 17.8163 26.5159 18.1477C26.1726 18.4792 25.7317 18.7544 25.1931 18.9734C24.6545 19.1924 24.0094 19.3018 23.2577 19.3018ZM23.8348 17.1712C24.5687 17.1712 25.1961 17.0262 25.7169 16.7362C26.2436 16.4461 26.6431 16.0674 26.9154 15.5998C27.1936 15.1263 27.3327 14.6203 27.3327 14.0817V12.3239C27.238 12.4186 27.0545 12.5073 26.7822 12.5902C26.5159 12.6671 26.2111 12.7352 25.8678 12.7944C25.5245 12.8477 25.1901 12.898 24.8646 12.9453C24.5391 12.9867 24.2668 13.0223 24.0479 13.0518C23.5329 13.117 23.0624 13.2264 22.6363 13.3803C22.2161 13.5342 21.8787 13.7562 21.6242 14.0462C21.3756 14.3303 21.2513 14.709 21.2513 15.1825C21.2513 15.8395 21.494 16.3366 21.9793 16.674C22.4646 17.0054 23.0831 17.1712 23.8348 17.1712Z" fill="black"/>
</svg>
