<svg width="36" height="22" viewBox="0 0 36 22" fill="none" xmlns="http://www.w3.org/2000/svg">
<path d="M5.27983 21H0.666193L7.69602 0.636363H13.2443L20.2642 21H15.6506L10.5497 5.28977H10.3906L5.27983 21ZM4.99148 12.9957H15.8892V16.3565H4.99148V12.9957ZM26.9908 21.2884C26.0163 21.2884 25.148 21.1193 24.3857 20.7812C23.6233 20.4366 23.0201 19.9295 22.576 19.2599C22.1385 18.5838 21.9197 17.742 21.9197 16.7344C21.9197 15.8859 22.0755 15.1733 22.3871 14.5966C22.6986 14.0199 23.1229 13.5559 23.6598 13.2045C24.1967 12.8532 24.8066 12.5881 25.4893 12.4091C26.1787 12.2301 26.9013 12.1042 27.657 12.0312C28.5452 11.9384 29.2611 11.8523 29.8047 11.7727C30.3482 11.6866 30.7427 11.5606 30.9879 11.3949C31.2332 11.2292 31.3558 10.9839 31.3558 10.6591V10.5994C31.3558 9.9697 31.157 9.48248 30.7592 9.13778C30.3681 8.79309 29.8113 8.62074 29.0888 8.62074C28.3265 8.62074 27.7199 8.78977 27.2692 9.12784C26.8184 9.45928 26.5201 9.87689 26.3743 10.3807L22.4567 10.0625C22.6555 9.13447 23.0466 8.33239 23.63 7.65625C24.2133 6.97348 24.9657 6.44981 25.8871 6.08523C26.8151 5.71401 27.889 5.52841 29.1087 5.52841C29.9571 5.52841 30.7692 5.62784 31.5447 5.8267C32.3269 6.02557 33.0197 6.33381 33.6229 6.75142C34.2327 7.16903 34.7133 7.70597 35.0646 8.36222C35.416 9.01184 35.5916 9.79072 35.5916 10.6989V21H31.5746V18.8821H31.4553C31.21 19.3594 30.8819 19.7803 30.4709 20.1449C30.0599 20.5028 29.5661 20.7846 28.9893 20.9901C28.4126 21.1889 27.7464 21.2884 26.9908 21.2884ZM28.2038 18.3651C28.8269 18.3651 29.3771 18.2424 29.8544 17.9972C30.3317 17.7453 30.7062 17.4072 30.978 16.983C31.2498 16.5587 31.3857 16.0781 31.3857 15.5412V13.9205C31.2531 14.0066 31.0708 14.0862 30.8388 14.1591C30.6134 14.2254 30.3582 14.2884 30.0732 14.348C29.7881 14.401 29.5031 14.4508 29.218 14.4972C28.933 14.5369 28.6745 14.5734 28.4425 14.6065C27.9453 14.6795 27.5111 14.7955 27.1399 14.9545C26.7687 15.1136 26.4804 15.3291 26.2749 15.6009C26.0694 15.866 25.9666 16.1974 25.9666 16.5952C25.9666 17.1719 26.1754 17.6127 26.593 17.9176C27.0173 18.2159 27.5542 18.3651 28.2038 18.3651Z" fill="black"/>
</svg>
