<svg width="42" height="23" viewBox="0 0 42 23" fill="none" xmlns="http://www.w3.org/2000/svg">
<path d="M6.71023 22H0.318182L11.142 0.181818H19.2386L22.8182 22H16.4261L14.2955 6.19034H14.125L6.71023 22ZM6.96591 13.392H18.983L18.2159 17.8239H6.19886L6.96591 13.392ZM29.5218 22.2557C28.4849 22.2557 27.5936 22.0852 26.8478 21.7443C26.1092 21.3963 25.5694 20.8707 25.2285 20.1676C24.8947 19.4574 24.8201 18.5625 25.0048 17.483C25.1539 16.5881 25.4345 15.8246 25.8464 15.1925C26.2583 14.5604 26.7697 14.0419 27.3805 13.6371C27.9913 13.2322 28.6767 12.9233 29.4366 12.7102C30.2037 12.4901 31.0133 12.348 31.8656 12.2841C32.7889 12.2131 33.5382 12.1243 34.1135 12.0178C34.6887 11.9112 35.1184 11.7656 35.4025 11.581C35.6866 11.3963 35.8571 11.1477 35.9139 10.8352V10.7926C35.9778 10.3665 35.8642 10.0398 35.573 9.8125C35.2889 9.58523 34.8912 9.47159 34.3798 9.47159C33.8258 9.47159 33.3464 9.59233 32.9416 9.83381C32.5439 10.0753 32.2704 10.4517 32.1213 10.9631H26.7093C26.9366 9.96875 27.4018 9.05256 28.1049 8.21449C28.8152 7.36932 29.7562 6.6946 30.9281 6.19034C32.1071 5.67898 33.5133 5.4233 35.1468 5.4233C36.3116 5.4233 37.3343 5.56179 38.215 5.83878C39.0957 6.10866 39.8237 6.48864 40.399 6.97869C40.9814 7.46165 41.3897 8.02983 41.6241 8.68324C41.8656 9.32955 41.9224 10.0327 41.7946 10.7926L39.9196 22H34.4224L34.8059 19.6989H34.6781C34.252 20.3097 33.7726 20.8033 33.2399 21.1797C32.7143 21.5561 32.139 21.8295 31.514 22C30.8961 22.1705 30.2321 22.2557 29.5218 22.2557ZM32.0787 18.5483C32.519 18.5483 32.9522 18.456 33.3784 18.2713C33.8045 18.0866 34.1703 17.8203 34.4757 17.4723C34.7811 17.1243 34.9764 16.7017 35.0616 16.2045L35.2747 14.8409C35.1184 14.9048 34.9444 14.9652 34.7527 15.022C34.568 15.0717 34.3727 15.1214 34.1667 15.1712C33.9679 15.2209 33.7548 15.267 33.5275 15.3097C33.3074 15.3523 33.0801 15.3949 32.8457 15.4375C32.377 15.5085 31.9828 15.6257 31.6632 15.7891C31.3436 15.9453 31.095 16.1406 30.9174 16.375C30.7399 16.6023 30.6298 16.858 30.5872 17.142C30.5233 17.5895 30.6262 17.9375 30.8961 18.1861C31.1731 18.4276 31.5673 18.5483 32.0787 18.5483Z" fill="black"/>
</svg>
