<svg width="18" height="12" viewBox="0 0 18 12" fill="none" xmlns="http://www.w3.org/2000/svg">
<path d="M2.12003 11H0.372869L4.29865 0.0909088H6.20028L10.1261 11H8.37891L5.29474 2.07244H5.20952L2.12003 11ZM2.413 6.72798H8.08061V8.11293H2.413V6.72798ZM13.9546 11.1811C13.4362 11.1811 12.9674 11.0852 12.5484 10.8935C12.1294 10.6982 11.7973 10.4158 11.5523 10.0465C11.3108 9.6772 11.1901 9.22443 11.1901 8.68821C11.1901 8.22656 11.2789 7.84659 11.4564 7.5483C11.634 7.25 11.8737 7.01385 12.1755 6.83984C12.4774 6.66584 12.8147 6.53445 13.1876 6.44567C13.5605 6.35689 13.9404 6.28942 14.3275 6.24325C14.8176 6.18643 15.2153 6.14027 15.5207 6.10476C15.8261 6.0657 16.048 6.00355 16.1865 5.91832C16.325 5.8331 16.3943 5.6946 16.3943 5.50284V5.46555C16.3943 5.00035 16.2629 4.63991 16.0001 4.38423C15.7409 4.12855 15.3538 4.00071 14.8389 4.00071C14.3026 4.00071 13.8801 4.11967 13.5711 4.3576C13.2657 4.59197 13.0544 4.85298 12.9372 5.14062L11.4404 4.79972C11.618 4.30256 11.8772 3.90128 12.2181 3.59588C12.5626 3.28693 12.9585 3.06321 13.406 2.92472C13.8534 2.78267 14.324 2.71165 14.8176 2.71165C15.1443 2.71165 15.4905 2.75071 15.8563 2.82884C16.2256 2.90341 16.57 3.0419 16.8896 3.24432C17.2128 3.44673 17.4774 3.73615 17.6833 4.11257C17.8893 4.48544 17.9923 4.97017 17.9923 5.56676V11H16.4369V9.88139H16.373C16.27 10.0874 16.1155 10.2898 15.9095 10.4886C15.7036 10.6875 15.439 10.8526 15.1159 10.984C14.7927 11.1154 14.4056 11.1811 13.9546 11.1811ZM14.3009 9.9027C14.7412 9.9027 15.1176 9.8157 15.4301 9.64169C15.7462 9.46768 15.9859 9.24041 16.1492 8.95987C16.3161 8.67578 16.3996 8.37216 16.3996 8.04901V6.99432C16.3428 7.05114 16.2327 7.1044 16.0693 7.15412C15.9095 7.20028 15.7267 7.24112 15.5207 7.27663C15.3147 7.30859 15.1141 7.33878 14.9188 7.36719C14.7235 7.39205 14.5601 7.41335 14.4287 7.43111C14.1198 7.47017 13.8374 7.53587 13.5818 7.6282C13.3296 7.72053 13.1272 7.85369 12.9745 8.0277C12.8254 8.19815 12.7508 8.42543 12.7508 8.70952C12.7508 9.10369 12.8964 9.40199 13.1876 9.6044C13.4788 9.80327 13.8499 9.9027 14.3009 9.9027Z" fill="black"/>
</svg>
