<svg width="15" height="10" viewBox="0 0 15 10" fill="none" xmlns="http://www.w3.org/2000/svg">
<path d="M1.69602 9H0.298295L3.43892 0.272727H4.96023L8.10085 9H6.70312L4.2358 1.85795H4.16761L1.69602 9ZM1.9304 5.58239H6.46449V6.69034H1.9304V5.58239ZM11.1637 9.14489C10.7489 9.14489 10.3739 9.06818 10.0387 8.91477C9.70348 8.75852 9.43786 8.53267 9.24183 8.23722C9.04865 7.94176 8.95206 7.57955 8.95206 7.15057C8.95206 6.78125 9.02308 6.47727 9.16513 6.23864C9.30717 6 9.49893 5.81108 9.74041 5.67188C9.98189 5.53267 10.2518 5.42756 10.5501 5.35653C10.8484 5.28551 11.1523 5.23153 11.462 5.1946C11.854 5.14915 12.1722 5.11222 12.4165 5.08381C12.6609 5.05256 12.8384 5.00284 12.9492 4.93466C13.06 4.86648 13.1154 4.75568 13.1154 4.60227V4.57244C13.1154 4.20028 13.0103 3.91193 12.8001 3.70739C12.5927 3.50284 12.283 3.40057 11.8711 3.40057C11.4421 3.40057 11.104 3.49574 10.8569 3.68608C10.6126 3.87358 10.4435 4.08239 10.3498 4.3125L9.15234 4.03977C9.29439 3.64205 9.50178 3.32102 9.7745 3.0767C10.0501 2.82955 10.3668 2.65057 10.7248 2.53977C11.0827 2.42614 11.4592 2.36932 11.854 2.36932C12.1154 2.36932 12.3924 2.40057 12.685 2.46307C12.9805 2.52273 13.256 2.63352 13.5117 2.79545C13.7702 2.95739 13.9819 3.18892 14.1467 3.49006C14.3114 3.78835 14.3938 4.17614 14.3938 4.65341V9H13.1495V8.10511H13.0984C13.016 8.26989 12.8924 8.43182 12.7276 8.59091C12.5629 8.75 12.3512 8.8821 12.0927 8.98722C11.8342 9.09233 11.5245 9.14489 11.1637 9.14489ZM11.4407 8.12216C11.793 8.12216 12.0941 8.05256 12.3441 7.91335C12.5969 7.77415 12.7887 7.59233 12.9194 7.3679C13.0529 7.14062 13.1197 6.89773 13.1197 6.6392V5.79545C13.0742 5.84091 12.9862 5.88352 12.8555 5.9233C12.7276 5.96023 12.5813 5.9929 12.4165 6.02131C12.2518 6.04687 12.0913 6.07102 11.935 6.09375C11.7788 6.11364 11.6481 6.13068 11.543 6.14489C11.2958 6.17614 11.07 6.22869 10.8654 6.30256C10.6637 6.37642 10.5018 6.48295 10.3796 6.62216C10.2603 6.75852 10.2006 6.94034 10.2006 7.16761C10.2006 7.48295 10.3171 7.72159 10.5501 7.88352C10.783 8.04261 11.0799 8.12216 11.4407 8.12216Z" fill="black"/>
</svg>
