<svg width="18" height="12" viewBox="0 0 18 12" fill="none" xmlns="http://www.w3.org/2000/svg">
<path d="M1.76847 11H0.383523L4.3892 0.0909088H5.75284L9.75852 11H8.37358L5.11364 1.81676H5.02841L1.76847 11ZM2.27983 6.73864H7.86222V7.91051H2.27983V6.73864ZM13.695 11.1918C13.1765 11.1918 12.706 11.0941 12.2834 10.8988C11.8608 10.6999 11.5252 10.4141 11.2766 10.0412C11.0281 9.66477 10.9038 9.21023 10.9038 8.67756C10.9038 8.20881 10.9961 7.82884 11.1808 7.53764C11.3654 7.2429 11.6122 7.01207 11.9212 6.84517C12.2301 6.67827 12.571 6.55398 12.9439 6.4723C13.3203 6.38707 13.6985 6.3196 14.0785 6.26989C14.5756 6.20597 14.9787 6.15803 15.2876 6.12607C15.6001 6.09055 15.8274 6.03196 15.9695 5.95028C16.1151 5.86861 16.1879 5.72656 16.1879 5.52415V5.48153C16.1879 4.95597 16.044 4.54759 15.7564 4.25639C15.4723 3.9652 15.0408 3.8196 14.462 3.8196C13.8619 3.8196 13.3913 3.95099 13.0504 4.21378C12.7095 4.47656 12.4698 4.7571 12.3313 5.0554L11.1381 4.62926C11.3512 4.1321 11.6353 3.74503 11.9904 3.46804C12.3491 3.1875 12.7397 2.99219 13.1623 2.8821C13.5884 2.76847 14.0075 2.71165 14.4194 2.71165C14.6822 2.71165 14.984 2.74361 15.3249 2.80753C15.6694 2.8679 16.0014 2.99396 16.321 3.18572C16.6442 3.37749 16.9123 3.6669 17.1254 4.05398C17.3384 4.44105 17.445 4.95952 17.445 5.60938V11H16.1879V9.89205H16.1239C16.0387 10.0696 15.8967 10.2596 15.6978 10.462C15.4989 10.6644 15.2344 10.8366 14.9041 10.9787C14.5739 11.1207 14.1708 11.1918 13.695 11.1918ZM13.8867 10.0625C14.3839 10.0625 14.8029 9.96484 15.1438 9.76953C15.4883 9.57422 15.7475 9.32209 15.9215 9.01314C16.0991 8.70419 16.1879 8.37926 16.1879 8.03835V6.88778C16.1346 6.9517 16.0174 7.0103 15.8363 7.06357C15.6587 7.11328 15.4528 7.15767 15.2184 7.19673C14.9876 7.23224 14.7621 7.2642 14.5419 7.29261C14.3253 7.31747 14.1495 7.33878 14.0146 7.35653C13.6879 7.39915 13.3825 7.46839 13.0984 7.56428C12.8178 7.65661 12.5906 7.79687 12.4165 7.98509C12.2461 8.16974 12.1609 8.42187 12.1609 8.74148C12.1609 9.17827 12.3224 9.50852 12.6456 9.73224C12.9723 9.95241 13.386 10.0625 13.8867 10.0625Z" fill="black"/>
</svg>
