<svg width="21" height="15" viewBox="0 0 21 15" fill="none" xmlns="http://www.w3.org/2000/svg">
<path d="M2.12216 14H0.460227L5.26705 0.909091H6.90341L11.7102 14H10.0483L6.13636 2.98011H6.03409L2.12216 14ZM2.7358 8.88636H9.43466V10.2926H2.7358V8.88636ZM16.4339 14.2301C15.8118 14.2301 15.2472 14.1129 14.7401 13.8786C14.233 13.6399 13.8303 13.2969 13.532 12.8494C13.2337 12.3977 13.0845 11.8523 13.0845 11.2131C13.0845 10.6506 13.1953 10.1946 13.4169 9.84517C13.6385 9.49148 13.9347 9.21449 14.3054 9.0142C14.6761 8.81392 15.0852 8.66477 15.5327 8.56676C15.9844 8.46449 16.4382 8.38352 16.8942 8.32386C17.4908 8.24716 17.9744 8.18963 18.3452 8.15128C18.7202 8.10866 18.9929 8.03835 19.1634 7.94034C19.3381 7.84233 19.4254 7.67187 19.4254 7.42898V7.37784C19.4254 6.74716 19.2528 6.2571 18.9077 5.90767C18.5668 5.55824 18.049 5.38352 17.3544 5.38352C16.6342 5.38352 16.0696 5.54119 15.6605 5.85653C15.2514 6.17187 14.9638 6.50852 14.7976 6.86648L13.3658 6.35511C13.6214 5.75852 13.9624 5.29403 14.3885 4.96165C14.8189 4.625 15.2876 4.39062 15.7947 4.25852C16.3061 4.12216 16.8089 4.05398 17.3033 4.05398C17.6186 4.05398 17.9808 4.09233 18.3899 4.16903C18.8033 4.24148 19.2017 4.39276 19.5852 4.62287C19.973 4.85298 20.2947 5.20028 20.5504 5.66477C20.8061 6.12926 20.9339 6.75142 20.9339 7.53125V14H19.4254V12.6705H19.3487C19.2464 12.8835 19.076 13.1115 18.8374 13.3544C18.5987 13.5973 18.2813 13.804 17.8849 13.9744C17.4886 14.1449 17.005 14.2301 16.4339 14.2301ZM16.6641 12.875C17.2607 12.875 17.7635 12.7578 18.1726 12.5234C18.5859 12.2891 18.897 11.9865 19.1058 11.6158C19.3189 11.245 19.4254 10.8551 19.4254 10.446V9.06534C19.3615 9.14205 19.2209 9.21236 19.0036 9.27628C18.7905 9.33594 18.5433 9.3892 18.2621 9.43608C17.9851 9.47869 17.7145 9.51705 17.4503 9.55114C17.1903 9.58097 16.9794 9.60653 16.8175 9.62784C16.4254 9.67898 16.0589 9.76207 15.718 9.87713C15.3814 9.98793 15.1087 10.1562 14.8999 10.3821C14.6953 10.6037 14.593 10.9062 14.593 11.2898C14.593 11.8139 14.7869 12.2102 15.1747 12.4787C15.5668 12.7429 16.0632 12.875 16.6641 12.875Z" fill="black"/>
</svg>
