<svg width="12" height="9" viewBox="0 0 12 9" fill="none" xmlns="http://www.w3.org/2000/svg">
<path d="M1.41335 8H0.24858L2.86577 0.727273H4.13352L6.75071 8H5.58594L3.52983 2.0483H3.47301L1.41335 8ZM1.60866 5.15199H5.38707V6.07528H1.60866V5.15199ZM9.30309 8.12074C8.95745 8.12074 8.64495 8.05682 8.36559 7.92898C8.08623 7.79877 7.86488 7.61056 7.70153 7.36435C7.54054 7.11813 7.46005 6.81629 7.46005 6.45881C7.46005 6.15104 7.51924 5.89773 7.63761 5.69886C7.75598 5.5 7.91578 5.34257 8.11701 5.22656C8.31824 5.11056 8.54315 5.02296 8.79173 4.96378C9.04031 4.90459 9.29362 4.85961 9.55167 4.82884C9.87837 4.79096 10.1435 4.76018 10.3471 4.73651C10.5507 4.71046 10.6987 4.66903 10.791 4.61222C10.8833 4.5554 10.9295 4.46307 10.9295 4.33523V4.31037C10.9295 4.00024 10.8419 3.75994 10.6667 3.58949C10.4939 3.41903 10.2359 3.33381 9.89258 3.33381C9.5351 3.33381 9.25337 3.41312 9.04741 3.57173C8.84381 3.72798 8.70295 3.90199 8.62482 4.09375L7.62695 3.86648C7.74532 3.53504 7.91815 3.26752 8.14542 3.06392C8.37506 2.85795 8.63903 2.70881 8.93732 2.61648C9.23562 2.52178 9.5493 2.47443 9.87837 2.47443C10.0962 2.47443 10.327 2.50047 10.5708 2.55256C10.8171 2.60227 11.0467 2.6946 11.2598 2.82955C11.4752 2.96449 11.6516 3.15743 11.7889 3.40838C11.9262 3.65696 11.9949 3.98011 11.9949 4.37784V8H10.9579V7.25426H10.9153C10.8467 7.39157 10.7437 7.52652 10.6064 7.65909C10.469 7.79167 10.2927 7.90175 10.0772 7.98935C9.8618 8.07694 9.60375 8.12074 9.30309 8.12074ZM9.53391 7.26847C9.82747 7.26847 10.0784 7.21046 10.2868 7.09446C10.4975 6.97846 10.6573 6.82694 10.7662 6.63991C10.8774 6.45052 10.9331 6.24811 10.9331 6.03267V5.32955C10.8952 5.36742 10.8218 5.40294 10.7129 5.43608C10.6064 5.46686 10.4844 5.49408 10.3471 5.51776C10.2098 5.53906 10.0761 5.55919 9.94585 5.57812C9.81564 5.5947 9.70674 5.6089 9.61914 5.62074C9.41317 5.64678 9.22496 5.69058 9.05451 5.75213C8.88642 5.81368 8.75148 5.90246 8.64968 6.01847C8.55025 6.1321 8.50053 6.28362 8.50053 6.47301C8.50053 6.7358 8.5976 6.93466 8.79173 7.0696C8.98585 7.20218 9.23325 7.26847 9.53391 7.26847Z" fill="black"/>
</svg>
