<svg version="1.2" xmlns="http://www.w3.org/2000/svg" viewBox="0 0 453 454" width="453" height="454">
	<title>&lt;Path&gt; copy 25</title>
	<style>
		.s0 { fill: #fce3c3 } 
		.s1 { fill: #ffcfca } 
		.s2 { fill: #534741 } 
		.s3 { fill: #f9bfbb } 
		.s4 { fill: #397272 } 
		.s5 { fill: #306664 } 
		.s6 { fill: #211a17 } 
		.s7 { fill: #ce7872 } 
		.s8 { fill: #ffffff } 
		.s9 { fill: #ea8c8b } 
	</style>
	<path id="&lt;Path&gt; copy" class="s0" d="m453.4 226.5c0 125.2-101.5 226.7-226.7 226.7-125.1 0-226.6-101.5-226.6-226.7 0-125.1 101.5-226.6 226.6-226.6 125.2 0 226.7 101.5 226.7 226.6z"/>
	<path id="&lt;Path&gt; copy 2" class="s1" d="m553.1 766.9q-8.4-20.9-16.7-41.8c-5.3-13.4-10-24.9-17-37.5-2.9-5.1-6.8-11.9-10.1-17q-23.5-43.2-46.9-86.3-14.8-27.3-29.7-54.6c-6.5-11.9-13-23.9-17.9-36.6-6.2-15.7-9.8-32.2-13.1-48.7-2.5-12.2-4.8-24.4-7.2-36.6-7.2 3.2-14.3 6.4-21.3 9.7-15.2 7.1-30.3 14.4-45.6 21.4 11.6 33.8 24.2 67 41.6 98.1 31.1 55.5 77.2 99.3 114.8 150.6 1.3 1.9 0.7 7.5 0.9 9.8 0.4 7.7-0.3 15.4 0.7 23.1 0.9 7.7 2.7 15.3 5.3 22.7 1.2 3.3 4.4 6.4 7.8 3.4q0.5-0.3 0.9-0.7c3.4-3.6 3.4-8.5 3.2-13.1-0.3-5.2 0-10.2 2.3-15 0.6-1.3 1.6-2.5 3.1-2.8 0.8-0.2 1.7 0 2.5 0.3 2.9 0.9 5 2.7 6.7 4.8 0.9 1.2 1.7 2.4 2.4 3.7 0.7 1.2 1.3 2.5 1.9 3.8 0.7 1.6 1.4 3.2 2.2 4.7q0.2 0.5 0.4 0.9 0.2 0.4 0.4 0.8 1.4 2.7 2.7 5.4 2.5 4.8 4.9 9.7 2.2 4.2 4.3 8.5c2.5 4.9 5.2 10.5 9.6 14 3.4 2.6 8.7-0.1 6.9-4.7z"/>
	<path id="&lt;Path&gt; copy 3" class="s1" d="m136 321.8c-49.9 0-97.7 157.5-98.9 159.5-1 1.8-100.3 147.9-100.6 148.2 0 0-33.6 33.9-41.9 44.1-5.5 6.9-11.3 14.1-14.9 22.2-3.7 8.7-6 17.8-8.5 26.9-0.4 1.4-0.8 2.8-0.6 4.3 0.3 2.6 3.2 4.9 5.9 3.7 5.7-2.6 7.7-10.1 9.3-15.5 1.6-5.1 2.9-10.3 5.3-15.1 2.3-4.7 5.9-8.1 10.1-11.3 3-2.2 5.9-4.6 9-6.8 1.2-0.8 2.5-1.7 3.8-2.3 1.7-0.9 3.6-1.5 5.6-1.4 1.6 0.2 4 1 5 2.4 1 1.6-0.1 3.5-0.8 4.9-0.8 1.8-1.9 3.3-3.1 4.8-2.1 2.6-4.5 5.1-5.7 8.2q-0.3 0.7-0.6 1.6c-1.5 5.8 3 14.2 9.5 8.9 1.4-1.1 2.5-2.6 3.6-4 5.2-6.7 12-12.4 15.9-20.1 2.5-4.9 4.5-10 6.5-15.1 3.6-9.5 5.2-15.3 5.9-19.8v-0.1l0.1-0.1c0.8-0.7 91.2-81.6 144.4-154.2 12.5-17 43.1-83.9 57.9-132.5 3-10-12.9-31.7-22.2-41.4z"/>
	<path id="&lt;Path&gt; copy 4" class="s1" d="m207.9 209.5c15.1 7.7 30.4 14.8 45.9 21.7 4.7 2.1 9.4 4.2 14.3 5.3l1.1 28.2 0.9 24.2q-1.4 0.9-2.9 1.5c-4.6 11.6-15.9 19.8-29.1 19.8-14.2 0-26.2-9.5-30-22.5q-0.4-0.2-0.9-0.3 0-1.8 0-3.7-0.4-2.3-0.4-4.8 0-2.3 0.4-4.5 0-3.2-0.1-6.3c0-8.1 0-16.2-0.9-24.2q-0.4-3.7-0.9-7.3c-1-6.1-2.3-12.1-3.6-18.1q-1.5-7.5-3.1-14.9c2.9 2.7 5.7 4.1 9.3 5.9z"/>
	<path id="&lt;Path&gt; copy 5" class="s2" d="m299.3 160.9c-1.6 19.6-10.2 38.7-24.2 52.5-6.4 6.3-13.9 11.6-22.3 14.8-9.2 3.6-19.3 4.7-29.1 4.2-5.8-0.3-11.7-1.2-17.1-3.5-6.4-2.8-11.7-7.5-16.7-12.4-8.5-8.3-16.4-17.5-22.2-27.9-5.9-10.5-9.6-22.2-9.6-34.2 0-4 0.5-8.1 2.1-11.9 2-5 5.9-8.9 9.9-12.6 13.2-12 28.7-21.8 45.9-26.6 17.8-4.9 36.5-4.3 55-3.6 4.6 0.2 8.9 1.1 12.6 4.1 3.1 2.4 4.8 6.4 6.5 9.8 4.6 9.4 7.6 19.6 8.9 30 0.6 5.7 0.8 11.6 0.3 17.3z"/>
	<path id="&lt;Path&gt; copy 6" class="s3" d="m269.2 264.7c-17.3-3.9-34-10.2-49.2-19-4.9-2.8-9.9-5.9-14.7-9.1-1-6.1-2.3-12.1-3.6-18.1q-1.5-7.5-3.1-14.9c2.9 2.7 5.7 4.1 9.3 5.9 15.1 7.7 30.4 14.8 45.9 21.7 4.7 2.1 9.4 4.2 14.3 5.3z"/>
	<path id="&lt;Path&gt; copy 7" class="s1" d="m297.2 151.7q-1.6-6.6-3.9-12.8c-4.8-13.2-13.7-25.4-25.6-33.4-22.8-15.4-54.7-11.6-73.1 8.6-4.3 4.8-7.9 10.3-10.4 16.2-6.2 14.6-6.5 30.2-3.1 45.2 3 13.3 8.8 26.1 16 37.4 4.5 6.9 9.6 13.4 15.7 19 3.5 3.3 7.4 6.2 11.5 8.6 8.3 5 17.6 8.2 27.2 8.5 8.8 0.3 17.7-2 25-6.6 8.3-5.2 13.4-13.2 17-22 8.8-21.5 9.3-46.1 3.7-68.7z"/>
	<path id="&lt;Path&gt; copy 8" class="s1" d="m201.1 208.3c-8.2 4.1-18.8 3.5-26.5-1.7-6.5-4.3-10.7-11.8-11.3-19.6q-0.2-2.2 0-4.3c0.3-2.5 0.9-5 2.1-7.2 3-5.4 9.4-8.6 15.5-8.1 6.2 0.5 11.9 4.5 14.8 9.9l2.1 11.9z"/>
	<path id="&lt;Path&gt; copy 9" class="s2" d="m227.2 135.2c13.9-2.6 27.9-5.7 41-10.6 10.8-4 22.6-11.7 25.5-23.3 3.6-14.5-8.6-25.7-20.7-31.3-23.7-11.1-53-9.2-74.7 5.8-13.1 9-23 22.5-27.5 37.6-2.6 8.7-3.7 21.7 6.5 25.8 11.8 4.6 26.5 0.3 38.5-1.9q5.6-1 11.4-2.1z"/>
	<path id="&lt;Path&gt; copy 10" class="s2" d="m147.2 138.3c1.2-9 5.1-17.3 12.5-21.9 10.6-6.8 26.6-4.9 33.1 6.7 4.2 7.5 4.2 17.1 3.1 25.5-0.5 3.9-1.6 7.8-3.7 11.2-1.3 2.2-6.1 8.1-9.3 7.6-1-0.1-2.1-0.3-3-0.4q-0.3 0-0.6 0-4.8 0-9 2.5-3.2 1.7-5.1 4.6c-3.9 4.3-9.9-3.2-12-6.3-5.1-7.7-7.4-19.1-6-29.5z"/>
	<path id="&lt;Path&gt; copy 11" class="s4" d="m354.4 464.3q-0.2 0-0.4 0.1c3.9 63.8 6.1 191.1 11 244.8-74.5-4.6-184.7-0.4-250.2-8.4-1.8-32.7 0-110.1 9-212.6q1.3-15.1 3-30.9 0.1-0.5 0.2-1-0.1-0.1-0.2-0.1c-9.7-6.6-20.5-12.6-31.4-18.5-15.1-8.1-30.2-16.1-42.6-25.3-1-0.8 14.4-27.3 15-28.7 21.1-43.8 57.4-90.2 107.3-100.9 3-0.6 31.7-3.9 31.8-5.2q-0.1 0.7-0.1 1.3c0 17.3 14 31.3 31.3 31.3 17.3 0 31.2-14 31.2-31.3q0-0.6 0-1.2c26.2 5.3 51.2 17.1 71.5 34.4 18.5 15.7 33.1 35.6 42.8 57.8q2.7 6.1 5 12.4c6.5 17.5 11.6 35.4 17 53.2-6.5 4.9-13.7 9.5-21.3 13.9-9.5 5.5-19.6 10.5-29.9 14.9z"/>
	<path id="&lt;Path&gt; copy 12" class="s5" d="m353.6 405.6c1.1 19.5-0.2 39.1 0.8 58.7 10.2-4.4 20.4-9.4 29.9-14.9-4.6-4.8-8.6-10.2-11.8-16-7.7-14-10.9-29.9-15.2-45.3-4.2-15.3-9.7-30-21.2-41 11.9 16.8 16.3 37.9 17.5 58.5z"/>
	<path id="&lt;Path&gt; copy 13" class="s6" d="m235.3 148.5c1.2-0.2 2.5-0.1 3.7 0q3.3 0.3 6.6 0.6c0.7 0 1.6 0 1.9-0.7 0.2-0.3 0.1-0.7 0-1-0.5-1.3-2.1-1.7-3.5-1.9-3.3-0.4-6.9-0.2-10 1.2-0.6 0.2-4.2 1.8-3.9 2.6 0.2 0.8 4.5-0.8 5.2-0.8z"/>
	<path id="&lt;Path&gt; copy 14" class="s6" d="m283 147c-1.2-0.1-2.5 0.1-3.7 0.3q-3.3 0.5-6.5 1c-0.7 0.1-1.6 0.2-2-0.5-0.2-0.3-0.2-0.7 0-1 0.4-1.3 1.9-1.8 3.3-2.1 3.3-0.7 6.8-0.7 10.1 0.4 0.6 0.2 4.3 1.5 4.1 2.4-0.2 0.7-4.6-0.5-5.3-0.5z"/>
	<path id="&lt;Path&gt; copy 15" class="s7" d="m279.1 204.5c-2.4 6.4-6.9 10.8-12.4 11.2-5.3 0.5-10.3-2.9-13.7-8.4-2.4-3.8-4.1-8.6-4.6-13.9l1-0.1 30.5-2.5 1.1-0.1c0.4 5-0.4 9.8-1.9 13.8z"/>
	<path id="&lt;Path&gt; copy 16" class="s8" d="m279.9 190.8c-3.4 5.1-8.6 8.5-14.6 9-6 0.5-11.7-2-15.9-6.5z"/>
	<path id="&lt;Path&gt; copy 17" class="s9" d="m279.1 204.5c-2.4 6.4-6.9 10.8-12.4 11.2-5.3 0.5-10.3-2.9-13.7-8.4q2.2-1.5 4.6-2.6c4.7-2 10-3 15.1-2.1 2.2 0.3 4.3 1 6.4 1.9z"/>
	<path id="&lt;Path&gt; copy 18" class="s6" d="m247.4 168.2c0.1 4.1-2.2 7.6-5.1 7.7-2.9 0-5.4-3.3-5.5-7.4-0.2-4.2 2.1-7.6 5-7.7 3-0.1 5.4 3.2 5.6 7.4z"/>
	<path id="&lt;Path&gt; copy 19" class="s8" d="m243.5 165.8c-1.7 0-1.6 2.7 0.1 2.6 1.7 0 1.6-2.7-0.1-2.6z"/>
	<path id="&lt;Path&gt; copy 20" class="s6" d="m275.7 167.3c0.1 4.2 2.6 7.5 5.5 7.4 2.9-0.1 5.2-3.5 5.1-7.7-0.1-4.1-2.6-7.4-5.6-7.4-2.9 0.1-5.2 3.6-5 7.7z"/>
	<path id="&lt;Path&gt; copy 21" class="s8" d="m282.5 163.8c-1.7 0.1-1.6 2.7 0.1 2.7 1.7-0.1 1.7-2.7-0.1-2.7z"/>
	<path id="&lt;Path&gt; copy 22" class="s7" d="m266.6 176.7c-1.7-1.4-4.4-1.3-6.1 0.1l4.8 8.2c1.3-0.1 2.4-1.2 2.9-2.4 0.8-2 0.1-4.6-1.6-5.9z"/>
	<path id="&lt;Path&gt; copy 23" class="s3" d="m224.8 177.1c-7.8 0.6-13.7 6.1-13.3 12.5 0.4 6.3 7.1 11 14.9 10.5 7.8-0.6 13.8-6.2 13.3-12.5-0.4-6.3-7.1-11-14.9-10.5z"/>
	<path id="&lt;Path&gt; copy 24" class="s3" d="m299.9 181c-0.2-3.6-4-6.2-8.4-5.9-4.3 0.3-7.7 3.4-7.4 7 0.2 3.5 3.9 6.2 8.3 5.9 4.4-0.4 7.7-3.5 7.5-7z"/>
	<path id="&lt;Path&gt; copy 25" class="s5" d="m138.8 379.5c-5.9 25.2-9.9 50.9-12 76.7-9.7-6.6-20.5-12.6-31.4-18.5q4.9-3.3 9.4-7.1c10.9-9 20.3-20 25.8-33 2.7-6.3 3.9-12.7 8.2-18.1z"/>
</svg>