<svg version="1.2" xmlns="http://www.w3.org/2000/svg" viewBox="0 0 454 454" width="454" height="454">
	<title>&lt;Path&gt;</title>
	<style>
		.s0 { fill: #fce3c3 } 
		.s1 { fill: #603813 } 
		.s2 { fill: #000000 } 
		.s3 { fill: #acddd9 } 
		.s4 { fill: #ffcfca } 
		.s5 { fill: #f9bfbb } 
		.s6 { fill: #c15252 } 
		.s7 { fill: #363740 } 
		.s8 { fill: #ffffff } 
		.s9 { fill: #1f3c49 } 
		.s10 { fill: #d55454 } 
		.s11 { fill: #f37c7c } 
	</style>
	<path id="&lt;Path&gt;" class="s0" d="m454.7 227.7c0 125.2-101.5 226.7-226.7 226.7-125.1 0-226.6-101.5-226.6-226.7 0-125.2 101.5-226.6 226.6-226.6 125.2 0 226.7 101.4 226.7 226.6z"/>
	<path id="&lt;Path&gt;" class="s1" d="m303 135.1c4.6 29.5-10.5 56.3-33.7 59.9-23.2 3.7-45.8-17.3-50.4-46.8-4.6-29.5 10.5-56.4 33.7-60 23.3-3.6 45.8 17.4 50.4 46.9z"/>
	<path id="&lt;Path&gt;" class="s2" d="m187.5 269.6l85.1 3.4-24.3 50.4-52.8-2.1z"/>
	<path id="&lt;Path&gt;" class="s3" d="m68.4 783.6c26.8 20.2 320.4 17.6 320.2 3.2-0.5-35.1-5.9-73-11-110.2-2.8-20.9-5.6-41.7-7.2-61.5-3.9-46.6-17-193.7-18.8-219.7-1.2-16.9-4.2-55.4-4.5-60q-3.3-2.2-6.6-4.3-0.1-0.1-0.2-0.1c-1.7-1-3.6-2.1-5.6-3.3q0 0-0.1 0c-8.7-5.1-20.2-11.6-27.8-15.2-19-9-38.5-14.5-59-17.5-34.2-4.9-68.1 1-92.9 8-22.4 6.2-37.4 13.3-39 14q-0.2 0.1-0.2 0.1c0 0 14.3 6.1 18.1 29.5 16.2 99.7-32.8 179-32.8 179 0 0-12.4 86.8-19.5 131-4.6 28.1-16.9 124.1-13.1 127z"/>
	<path id="&lt;Path&gt;" class="s4" d="m186.1 222.6q1.4 7.7 2.7 15.4 0.1 0.5 0.2 1 0 0.2 0.1 0.4c1.2 6.8 2.4 13.6 3.3 20.5q0.5 4.2 0.8 8.3 0.3 4.7 0.4 9.4c0 5.9-0.1 11.9-0.3 17.9q-0.2 5-0.2 10.1c0 3.9-1.7 8.1-0.1 11.8 2 4.8 6.6 7.3 10.7 10.1 4.4 3.1 9.2 5.6 14.2 7.5 9.8 3.6 20.9 5 31.1 1.9 19.5-6 14.3-27.4 14.3-42.9 0 0 0-4.3 0-4.3l-0.1-11.4v-16.1c-5.6-1.4-10.8-3.9-16-6.5-17.1-8.3-34.2-16.9-50.9-26.2q-0.6-0.4-1.3-0.7c-3.3-1.9-6.1-3.5-8.9-6.2z"/>
	<path id="&lt;Path&gt;" class="s5" d="m263.3 294c-19.3-5-37.9-12.7-54.7-23.3-5.4-3.3-11-6.9-16.2-10.8-0.9-6.9-2.1-13.7-3.3-20.5q-1.5-8.4-3-16.8c3.2 3.1 6.3 4.7 10.2 6.9 16.7 9.3 33.8 17.9 50.9 26.2 5.2 2.6 10.4 5.1 16 6.5z"/>
	<path id="&lt;Path&gt;" class="s4" d="m196.3 226.8c-8.8 6.1-20.9 7.2-30.6 2.5-8.2-3.9-14.3-11.7-16.3-20.6q-0.5-2.4-0.7-4.9c-0.1-2.9 0.2-5.8 1.2-8.5 2.5-6.7 9.3-11.5 16.4-11.9 7.2-0.5 14.3 3.1 18.6 8.8l4.4 13.3z"/>
	<path id="&lt;Path&gt;" class="s6" d="m199 834.2c-9.2 13.8-104.2-27.2-135.7-40.2-23.9-9.9-15.2-24.1-12.7-42.6 7.6-54.4 16.7-101.3 25.7-151.4 3.5-19.2 6.9-38.7 10.2-59.4q0.2-1.3 0.4-2.5c-4.1 13.2-11.4 40.5-14.4 50-17.3 54.1-44.9 181.7-73.6 186.3-5 0.8-59.7-18.4-62.1-25.3-17.3-48.3 36.2-225.3 44.8-247.2 15-38 62.2-135.6 74.8-151.8 24.1-31.1 102.5-49.3 106.4-50.4q16.9-4.8 34.1-8.6c11.4 26.9 14.2 53.4 17.1 82.5 15.4 155.1-7.8 449.8-15 460.6z"/>
	<path id="&lt;Path&gt;" class="s7" d="m224.3 324.8l-0.8 4.4-0.9 4.4-1.4 7.4-0.8 4.4-2.3 12.1-0.8 4.2-3 15.5-47.5-78.9 3.3-4.5 2.3-3.2 3.9-5.5 2.3-3.1 3.4-4.7 2.2-3.1 3.3-4.6z"/>
	<path id="&lt;Path&gt;" class="s8" d="m223.5 329.2l-0.9 4.4q-11.2-14.2-21.9-28.7c-6.5-9-13.5-17.8-18.7-27.6l2.2-3.1c2.6 5.1 5.8 9.9 9.1 14.6q14.6 20.5 30.2 40.4z"/>
	<path id="&lt;Path&gt;" class="s8" d="m221.2 341l-0.8 4.4c-8.5-10-16.8-20.2-24.7-30.6-7.2-9.4-13.9-19.2-19.4-29.7l2.3-3.1c2.5 5 5.4 9.8 8.4 14.6 8.4 12.9 18.1 24.9 27.9 36.8q3.1 3.8 6.3 7.6z"/>
	<path id="&lt;Path&gt;" class="s8" d="m218.1 357.5l-0.8 4.2c-9.9-10.7-19-22.1-27.2-34.2q-7.3-10.6-13.6-21.8-3.2-5.7-6.2-11.4-0.1-0.3-0.2-0.5l2.3-3.2q0.8 1.7 1.7 3.4 3.3 6.5 7 12.7c8.5 14.7 18.3 28.8 29.2 41.8q3.8 4.6 7.8 9z"/>
	<path id="&lt;Path&gt;" class="s6" d="m613.1 499.6c-21 29.4-175.7 196.6-223.1 98.9-0.6-1.4-1.5-3.6-2.5-6.3-5.1-14.2-13.3-43-16.7-54.1q0.2 1.2 0.4 2.5 0.4 2.5 0.8 5c3.1 18.8 6.2 36.8 9.4 54.4 9 50.1 18.1 97 25.6 151.4 2.6 18.5 11.3 32.7-12.6 42.6-31.5 13-126.5 54-135.7 40.2-4.6-6.8-0.8-129.3-4.4-256.4-2-73.5-16.2-147.4-10.6-204.2 2.9-29.1 5.7-55.6 17.1-82.5q17.2 3.8 34.1 8.6c3.9 1.1 82.2 19.3 106.4 50.4 12.6 16.2 66.9 150.6 66.9 150.6 0 0 46.6-34.7 102.4-58.6 8-3.5 48.3 49.4 42.5 57.5z"/>
	<path id="&lt;Path&gt;" class="s7" d="m234.4 324.8l0.8 4.4 0.9 4.4 1.4 7.4 0.8 4.4 2.3 12.1 0.8 4.2 3 15.5 47.5-78.9-3.3-4.5-2.3-3.2-3.9-5.5-2.3-3.1-3.4-4.7-2.2-3.1-3.3-4.6z"/>
	<path id="&lt;Path&gt;" class="s8" d="m235.2 329.2l0.9 4.4q11.2-14.2 21.9-28.7c6.5-9 13.5-17.8 18.7-27.6l-2.2-3.1c-2.6 5.1-5.8 9.9-9.2 14.6q-14.5 20.5-30.1 40.4z"/>
	<path id="&lt;Path&gt;" class="s8" d="m237.5 341l0.8 4.4c8.5-10 16.8-20.2 24.7-30.6 7.2-9.4 13.9-19.2 19.4-29.7l-2.3-3.1c-2.6 5-5.4 9.8-8.4 14.6-8.4 12.9-18.1 24.9-27.9 36.8q-3.1 3.8-6.3 7.6z"/>
	<path id="&lt;Path&gt;" class="s8" d="m240.6 357.5l0.8 4.2c9.9-10.7 19-22.1 27.2-34.2q7.3-10.6 13.6-21.8 3.2-5.7 6.1-11.4 0.2-0.3 0.3-0.5l-2.3-3.2q-0.8 1.7-1.7 3.4-3.3 6.5-7 12.7c-8.5 14.7-18.3 28.8-29.2 41.8q-3.8 4.6-7.8 9z"/>
	<path id="&lt;Path&gt;" class="s4" d="m296.3 242.4c-4.2 10.4-10.1 19.8-19.8 25.9-8.5 5.4-18.8 8-28.9 7.5-11.2-0.4-22-4.3-31.5-10.3-4.7-3-9.1-6.5-13.1-10.4-7-6.7-12.9-14.5-18-22.8-8.3-13.5-14.9-28.8-18.2-44.7-3.8-17.9-3.3-36.4 4-53.6 3-7 7.1-13.5 12.2-19.2 21.5-23.9 58.4-28 84.6-9.4 13.7 9.6 23.9 24.2 29.3 39.9 1.8 5 3.2 10.1 4.5 15.3 6.2 27 5.4 56.2-5.1 81.8z"/>
	<path id="&lt;Path&gt;" class="s9" d="m242 194.4c-1.4 0-3.3-2.2-3.8-5.5-0.3-1.8-0.2-3.5 0.4-4.8 0.2-0.5 0.8-1.6 1.6-1.7q0.1 0 0.2 0c1.4-0.1 3.3 2.2 3.9 5.5 0.2 1.7 0.1 3.5-0.5 4.8-0.2 0.4-0.8 1.5-1.6 1.6q-0.1 0-0.2 0.1z"/>
	<path id="&lt;Path&gt;" class="s9" d="m284.2 190.3c-1.2 0-3.2-2-3.7-5.3-0.3-1.7-0.1-3.4 0.4-4.7 0.4-0.9 1-1.5 1.6-1.6q0 0 0.1 0c1.2 0 3.2 1.9 3.7 5.3 0.3 1.7 0.1 3.4-0.4 4.7-0.4 0.9-1 1.5-1.6 1.5q0 0.1-0.1 0.1z"/>
	<path id="&lt;Path&gt;" class="s9" d="m263 197.9c1.1-1.2 3-1.7 4.8-1.4 1.8 0.3 3.4 1.6 4.2 3.2 0.9 1.6 1 3.7 0.2 5.4-0.7 1.6-2.2 2.8-3.8 3 1.1-1.1 1.7-2.4 2-3.7 0.2-1.2 0-2.4-0.6-3.5-0.5-1.1-1.4-2-2.6-2.5-1.2-0.6-2.6-0.8-4.2-0.5z"/>
	<path id="&lt;Path&gt;" class="s9" d="m243.3 164c-1.9-1-4.2-1.6-6.5-1.7-2.3-0.1-4.7 0.3-6.9 1.1-1.7 0.6-2.5 2.5-1.9 4.2 0.4 0.9 1 1.6 1.9 1.9q0.5 0.2 1 0.2 0.7 0.1 1.4-0.2c1.3-0.5 2.7-0.7 4.2-0.6 1.4 0 2.7 0.4 3.9 1q0.6 0.3 1.3 0.3c1.3 0.1 2.6-0.6 3.1-1.8 0.8-1.6 0.2-3.6-1.5-4.4z"/>
	<path id="&lt;Path&gt;" class="s9" d="m283.6 157.2q-1.2-0.3-2.4-0.3c-3.4-0.2-6.9 0.7-9.7 2.7-1.5 1-1.9 3-0.9 4.5 0.5 0.7 1.1 1.2 1.9 1.3q0.3 0.1 0.6 0.2c0.8 0 1.5-0.2 2.1-0.6 1.6-1.1 3.7-1.7 5.7-1.6q0.7 0.1 1.3 0.2 0.3 0 0.5 0.1c1.6 0 3.1-1 3.4-2.6 0.4-1.8-0.7-3.5-2.5-3.9z"/>
	<path id="&lt;Path&gt;" class="s8" d="m241.2 184.6c-2-0.4-2.7 2.7-0.6 3.2 2 0.4 2.7-2.8 0.6-3.2z"/>
	<path id="&lt;Path&gt;" class="s8" d="m284.1 180.4c-2.1-0.4-2.8 2.8-0.7 3.2 2 0.5 2.7-2.7 0.7-3.2z"/>
	<path id="&lt;Path&gt;" class="s10" d="m288.6 214.1c0.6 5.7-0.4 11.1-2.6 15.7-3.6 7.5-10.2 12.7-18.2 13.5-8.2 0.9-16-3.2-20.9-10-2.9-4-4.9-8.9-5.4-14.4q0-0.3-0.1-0.6l47.1-4.8q0.1 0.3 0.1 0.6z"/>
	<path id="&lt;Path&gt;" class="s8" d="m286.6 213.7c-4.7 6.1-12.1 10.4-20.7 11.3-8.6 0.9-16.7-1.9-22.5-6.9z"/>
	<path id="&lt;Path&gt;" class="s11" d="m286 229.8c-3.6 7.5-10.2 12.7-18.2 13.5-8.2 0.9-16-3.2-20.9-10 7.9-2.6 16.1-4 24.4-4.3q7.4-0.2 14.7 0.8z"/>
	<path id="&lt;Path&gt;" class="s5" d="m239.4 207.3c0.3 5.4-5.4 10-12.7 10.4-7.2 0.4-13.4-3.6-13.6-9-0.3-5.4 5.3-10 12.6-10.4 7.3-0.4 13.4 3.6 13.7 9z"/>
	<path id="&lt;Path&gt;" class="s5" d="m300.8 198.6c0.2 3.6-3.7 6.8-8.6 7-4.9 0.3-9-2.4-9.2-6.1-0.2-3.6 3.6-6.7 8.5-7 4.9-0.3 9.1 2.5 9.3 6.1z"/>
	<path id="&lt;Path&gt;" class="s1" d="m162.5 119.9c-2.2-8.3 0.5-17.6 5.9-23.9 5.4-6.4 13.2-10 21.1-11.3 7.9-1.3 16-0.4 23.9 1.2 7.6 1.5 15.2 3.7 22.9 3.2 9.4-0.5 18.5-5.3 24.8-13 5.9-7.2 18.5-6.2 26.2-1.1 7.7 5.1 15.2 13.9 16.8 23.5 1.5 9.1 0.7 24.4-13.6 32.8-16.9 9.8-69.9 6.3-77.1 6.2-7.2-0.2-14.9 1.7-19.6 7.4-9.4 11.5-11.2 28.8-11.9 44.1-5.5-3.1-10.8-4.4-17.1-4.4-2.7 0-5.7 0.2-9.1 2.7-5.9-11.5-9.4-23.8-12.1-36.6-1.3-6.3-2.2-12.9-1.5-19.3 0.4-2.4 0.9-4.9 2.2-6.9 2-3.1 5.5-4.7 8.9-5.1 3.4-0.3 5.9-0.5 9.3 0.5z"/>
</svg>